<svg width="115" height="34" viewBox="0 0 115 34" fill="none" xmlns="http://www.w3.org/2000/svg">
<path d="M17.4753 0.5C8.38443 0.5 0.975342 7.90909 0.975342 17C0.975342 26.0909 8.38443 33.5 17.4753 33.5C26.5663 33.5 33.9753 26.0909 33.9753 17C33.9753 7.90909 26.5663 0.5 17.4753 0.5ZM24.6117 22.0455C24.2026 23 23.6572 23.8182 22.9753 24.5455C22.2935 25.2727 21.4299 25.8182 20.5208 26.2273C19.5663 26.6364 18.5663 26.8636 17.5208 26.8636C16.4299 26.8636 15.4299 26.6818 14.4753 26.2727C13.5208 25.8636 12.7026 25.3182 11.9753 24.5909C11.2481 23.8636 10.7026 23.0455 10.2935 22.0909C9.88443 21.1364 9.65716 20.1364 9.65716 19.0455V7.22727H13.7481V19.0455C13.7481 19.5455 13.839 20.0455 14.0208 20.5C14.2026 20.9545 14.4753 21.3182 14.839 21.6818C15.1572 22 15.5663 22.2727 16.0208 22.4545C16.4753 22.6364 16.9299 22.7273 17.4753 22.7273C17.9753 22.7273 18.4299 22.6364 18.8844 22.4545C19.339 22.2727 19.7026 22 20.0208 21.6364C20.339 21.3182 20.6117 20.9091 20.7935 20.4545C20.9753 20 21.0663 19.5455 21.0663 19C21.0663 18.0455 20.7935 17.2727 20.2026 16.6364L15.6117 11.2727H21.0663L23.6117 14.2727C24.1572 14.9545 24.5208 15.6818 24.839 16.4545C25.1117 17.2727 25.2481 18.0909 25.2481 19C25.2481 20.0909 25.0208 21.0909 24.6117 22.0455ZM16.0663 19.0455C16.0663 18.6364 16.2026 18.3182 16.4753 18.0909C16.7481 17.8182 17.0663 17.7273 17.4299 17.7273C17.839 17.7273 18.1572 17.8636 18.4299 18.0909C18.7026 18.3636 18.839 18.6818 18.839 19.0455C18.839 19.4091 18.7026 19.7273 18.4299 20C18.1572 20.2727 17.839 20.4091 17.4299 20.4091C17.0663 20.4091 16.7481 20.2727 16.4753 20C16.2026 19.7273 16.0663 19.4091 16.0663 19.0455Z" fill="white"/>
<path d="M43.6257 26V7.51562H50.1003C52.3432 7.51562 54.0444 7.94727 55.2039 8.81055C56.3634 9.66536 56.9431 10.9222 56.9431 12.5811C56.9431 13.4867 56.7104 14.2865 56.2449 14.9805C55.7794 15.666 55.1319 16.1696 54.3025 16.4912C55.2504 16.7282 55.9952 17.2064 56.5369 17.9258C57.087 18.6452 57.3621 19.5254 57.3621 20.5664C57.3621 22.3438 56.795 23.6895 55.6609 24.6035C54.5268 25.5176 52.9102 25.9831 50.8113 26H43.6257ZM47.4343 17.9512V22.9404H50.697C51.5942 22.9404 52.2924 22.7288 52.7917 22.3057C53.2996 21.874 53.5535 21.2816 53.5535 20.5283C53.5535 18.8356 52.6775 17.9766 50.9255 17.9512H47.4343ZM47.4343 15.2598H50.2527C52.1739 15.2259 53.1345 14.46 53.1345 12.9619C53.1345 12.124 52.8891 11.5231 52.3982 11.1592C51.9158 10.7868 51.1498 10.6006 50.1003 10.6006H47.4343V15.2598ZM67.95 26C67.7807 25.6699 67.658 25.2594 67.5818 24.7686C66.6931 25.7588 65.5378 26.2539 64.116 26.2539C62.7703 26.2539 61.6531 25.8646 60.7644 25.0859C59.8842 24.3073 59.4441 23.3255 59.4441 22.1406C59.4441 20.6849 59.9815 19.5677 61.0564 18.7891C62.1397 18.0104 63.7013 17.6169 65.741 17.6084H67.4294V16.8213C67.4294 16.1865 67.2644 15.6787 66.9343 15.2979C66.6127 14.917 66.1007 14.7266 65.3982 14.7266C64.7804 14.7266 64.2937 14.8747 63.9382 15.1709C63.5912 15.4671 63.4177 15.8734 63.4177 16.3896H59.7488C59.7488 15.5941 59.9942 14.8577 60.4851 14.1807C60.976 13.5036 61.67 12.9746 62.5671 12.5938C63.4643 12.2044 64.4714 12.0098 65.5886 12.0098C67.2813 12.0098 68.6228 12.4372 69.613 13.292C70.6117 14.1383 71.1111 15.3317 71.1111 16.8721V22.8262C71.1195 24.1296 71.3015 25.1156 71.657 25.7842V26H67.95ZM64.9158 23.4482C65.4574 23.4482 65.9568 23.3298 66.4138 23.0928C66.8708 22.8473 67.2094 22.5215 67.4294 22.1152V19.7539H66.0583C64.2218 19.7539 63.2442 20.3887 63.1257 21.6582L63.113 21.874C63.113 22.3311 63.2738 22.7077 63.5955 23.0039C63.9171 23.3001 64.3572 23.4482 64.9158 23.4482ZM77.3064 12.2637L77.4207 13.8506C78.4024 12.6234 79.7185 12.0098 81.3689 12.0098C82.8246 12.0098 83.908 12.4372 84.6189 13.292C85.3298 14.1468 85.6938 15.4248 85.7107 17.126V26H82.0417V17.2148C82.0417 16.4362 81.8725 15.8734 81.5339 15.5264C81.1954 15.1709 80.6326 14.9932 79.8455 14.9932C78.8129 14.9932 78.0385 15.4333 77.5222 16.3135V26H73.8533V12.2637H77.3064ZM94.2166 23.2959C94.8936 23.2959 95.4438 23.1097 95.8669 22.7373C96.2901 22.3649 96.5102 21.8698 96.5271 21.252H99.9675C99.9591 22.1829 99.7052 23.0378 99.2058 23.8164C98.7065 24.5866 98.0209 25.1875 97.1492 25.6191C96.2859 26.0423 95.3295 26.2539 94.28 26.2539C92.3165 26.2539 90.7677 25.6318 89.6335 24.3877C88.4994 23.1351 87.9324 21.4085 87.9324 19.208V18.9668C87.9324 16.8509 88.4952 15.1624 89.6208 13.9014C90.7465 12.6403 92.2911 12.0098 94.2546 12.0098C95.9727 12.0098 97.3481 12.5007 98.3806 13.4824C99.4216 14.4557 99.9506 15.7549 99.9675 17.3799H96.5271C96.5102 16.6689 96.2901 16.0934 95.8669 15.6533C95.4438 15.2048 94.8852 14.9805 94.1912 14.9805C93.3363 14.9805 92.6889 15.2936 92.2488 15.9199C91.8171 16.5378 91.6013 17.5449 91.6013 18.9414V19.3223C91.6013 20.7357 91.8171 21.7513 92.2488 22.3691C92.6804 22.987 93.3363 23.2959 94.2166 23.2959ZM110.022 26C109.853 25.6699 109.73 25.2594 109.654 24.7686C108.765 25.7588 107.61 26.2539 106.188 26.2539C104.843 26.2539 103.725 25.8646 102.837 25.0859C101.956 24.3073 101.516 23.3255 101.516 22.1406C101.516 20.6849 102.054 19.5677 103.129 18.7891C104.212 18.0104 105.774 17.6169 107.813 17.6084H109.502V16.8213C109.502 16.1865 109.337 15.6787 109.007 15.2979C108.685 14.917 108.173 14.7266 107.47 14.7266C106.853 14.7266 106.366 14.8747 106.01 15.1709C105.663 15.4671 105.49 15.8734 105.49 16.3896H101.821C101.821 15.5941 102.066 14.8577 102.557 14.1807C103.048 13.5036 103.742 12.9746 104.639 12.5938C105.537 12.2044 106.544 12.0098 107.661 12.0098C109.354 12.0098 110.695 12.4372 111.685 13.292C112.684 14.1383 113.183 15.3317 113.183 16.8721V22.8262C113.192 24.1296 113.374 25.1156 113.729 25.7842V26H110.022ZM106.988 23.4482C107.53 23.4482 108.029 23.3298 108.486 23.0928C108.943 22.8473 109.282 22.5215 109.502 22.1152V19.7539H108.131C106.294 19.7539 105.316 20.3887 105.198 21.6582L105.185 21.874C105.185 22.3311 105.346 22.7077 105.668 23.0039C105.989 23.3001 106.429 23.4482 106.988 23.4482Z" fill="white"/>
</svg>
