<svg width="131" height="131" viewBox="0 0 131 131" fill="none" xmlns="http://www.w3.org/2000/svg">
<g filter="url(#filter0_d_588_133)">
<circle cx="65.6624" cy="58.6266" r="35" fill="white"/>
</g>
<g clip-path="url(#clip0_588_133)">
<path fill-rule="evenodd" clip-rule="evenodd" d="M56.5931 45.0641C49.0587 45.0641 42.9517 51.1362 42.9517 58.6266C42.9517 66.117 49.0587 72.1891 56.5931 72.1891C60.0743 72.1891 63.2511 70.8919 65.6615 68.7583C65.8532 68.5887 66.0394 68.4136 66.2208 68.2336C66.2813 68.1736 66.3414 68.1133 66.4008 68.0522H64.9222C64.9816 68.1133 65.0417 68.1736 65.1022 68.2336C65.0417 68.1737 64.9815 68.1132 64.9222 68.0522C64.6619 67.7846 64.4135 67.5068 64.1759 67.2188C64.1235 67.1552 64.0708 67.0908 64.0195 67.0263C64.0709 67.091 64.1234 67.155 64.1759 67.2188H67.1457C67.3559 66.9636 67.5578 66.7011 67.7493 66.431H63.5737C63.6694 66.5661 63.7668 66.6998 63.8672 66.8311C63.7666 66.6997 63.6695 66.5661 63.5737 66.431C63.3398 66.1011 63.1202 65.7599 62.9161 65.4092C62.6515 64.9547 62.4127 64.4843 62.2017 63.9984C62.1437 63.865 62.0879 63.7311 62.0341 63.5955C61.9807 63.4608 61.9296 63.324 61.8805 63.1871C61.7821 62.9132 61.6913 62.6353 61.6105 62.3536H69.7139C69.7904 62.0871 69.8586 61.8167 69.9188 61.5437H61.4056C61.4507 61.7484 61.5008 61.9516 61.5551 62.1529C61.5007 61.9516 61.4508 61.7486 61.4056 61.5437C61.3168 61.1412 61.2456 60.7321 61.1938 60.3171C61.1884 60.2744 61.1835 60.2311 61.1785 60.1883C61.1836 60.2315 61.1883 60.274 61.1938 60.3171C61.2104 60.4485 61.2289 60.5798 61.2491 60.7102H70.0753C70.1158 60.4493 70.1497 60.1868 70.175 59.9211H61.1494C61.1233 59.6463 61.1063 59.3684 61.0968 59.089C61.0942 59.0121 61.0926 58.935 61.0913 58.8578C61.09 58.7808 61.0885 58.7039 61.0885 58.6266C61.0885 58.704 61.0899 58.7807 61.0913 58.8578C61.0927 58.9349 61.0942 59.0122 61.0968 59.089H70.2276C70.2299 59.0205 70.2317 58.9514 70.2331 58.8827C70.2332 58.8744 70.233 58.8661 70.2331 58.8578C70.2332 58.855 70.2331 58.8523 70.2331 58.8495C70.2344 58.7752 70.2359 58.7012 70.2359 58.6266C70.2359 58.5005 70.2339 58.3752 70.2303 58.25C70.2173 57.7875 70.1807 57.3304 70.1224 56.8807H61.2021C61.165 57.1664 61.1367 57.455 61.1176 57.746C61.1128 57.8188 61.1088 57.8917 61.1051 57.9648C61.1021 58.0255 61.099 58.0867 61.0968 58.1476C61.099 58.0865 61.1022 58.0256 61.1051 57.9648C61.1087 57.8917 61.1129 57.8189 61.1176 57.746C61.1731 56.8855 61.3096 56.0468 61.5191 55.2373C61.592 54.9557 61.6739 54.6781 61.7642 54.4039C61.7855 54.3391 61.8069 54.2744 61.8292 54.2101C61.8513 54.1463 61.8741 54.0823 61.8971 54.019C61.874 54.0828 61.8514 54.1458 61.8292 54.2101C61.8071 54.2743 61.7854 54.3393 61.7642 54.4039H69.5602C69.4751 54.1454 69.3834 53.8896 69.2833 53.6383H62.0411C62.016 53.7011 61.9917 53.7646 61.9677 53.8279C61.9918 53.7646 62.016 53.7011 62.0411 53.6383C62.1537 53.3552 62.2757 53.0781 62.4066 52.8048C62.4422 52.7303 62.479 52.6556 62.5159 52.5819C62.5533 52.5075 62.5908 52.434 62.6295 52.3604C62.5911 52.4336 62.5531 52.5078 62.5159 52.5819C62.4788 52.6559 62.4424 52.73 62.4066 52.8048H68.9178C68.8693 52.7034 68.8192 52.603 68.7683 52.503C68.7442 52.4556 68.721 52.4088 68.6963 52.3618C68.69 52.3497 68.6833 52.3378 68.6769 52.3258C68.6696 52.3119 68.6622 52.2981 68.6548 52.2842C68.6183 52.2156 68.5817 52.1472 68.544 52.0793C68.5154 52.0278 68.4861 51.9767 68.4568 51.9256H62.8676C63.0305 51.6412 63.2042 51.3633 63.3868 51.0922C63.4297 51.0285 63.473 50.9654 63.5169 50.9025C63.5606 50.84 63.6052 50.7773 63.6498 50.7156C63.7396 50.5915 63.8301 50.4696 63.924 50.3487C64.1464 50.0622 64.3803 49.7843 64.6245 49.5166H66.6985C66.6167 49.427 66.5334 49.3382 66.4493 49.2508C66.1969 48.9885 65.9344 48.7364 65.6615 48.4949C63.2511 46.3613 60.0743 45.0641 56.5931 45.0641ZM63.924 50.3487C63.8303 50.4694 63.7393 50.5916 63.6498 50.7156C63.6051 50.7776 63.5607 50.8398 63.5169 50.9025C63.4732 50.9652 63.4295 51.0287 63.3868 51.0922H67.9362C67.7652 50.8383 67.5865 50.5901 67.3991 50.3487H63.924ZM61.5191 55.2373C61.45 55.5042 61.3893 55.7745 61.3364 56.0473H69.9881C69.9351 55.7745 69.8744 55.5041 69.8053 55.2373H61.5191ZM61.8805 63.1871C61.9298 63.3245 61.9806 63.4603 62.0341 63.5955C62.0877 63.7307 62.1439 63.8653 62.2017 63.9984H69.1227C69.2384 63.7322 69.3453 63.4618 69.4439 63.1871H61.8805ZM62.9161 65.4092C62.9528 65.4724 62.9905 65.535 63.0282 65.5975H68.2962C68.4473 65.3473 68.5904 65.0923 68.7254 64.8319H62.599C62.7002 65.0272 62.8057 65.2197 62.9161 65.4092ZM66.8979 49.7395C66.9308 49.7772 66.9637 49.815 66.9962 49.8531C66.9637 49.8151 66.9307 49.7772 66.8979 49.7395ZM68.0622 51.2805C68.0886 51.321 68.1152 51.3615 68.1411 51.4023C68.1152 51.3613 68.0886 51.3211 68.0622 51.2805ZM68.2505 51.5795C68.2747 51.619 68.2987 51.6588 68.3225 51.6986C68.2987 51.6588 68.2747 51.619 68.2505 51.5795ZM69.0009 52.9806C69.0257 53.0343 69.0502 53.0885 69.0743 53.1426C69.0502 53.0885 69.0257 53.0344 69.0009 52.9806ZM68.6036 65.0631C68.5877 65.0923 68.5712 65.1212 68.5551 65.1503C68.5712 65.1212 68.5877 65.0923 68.6036 65.0631ZM68.1328 65.8619C68.1094 65.8989 68.0861 65.936 68.0622 65.9727C68.0861 65.936 68.1093 65.8989 68.1328 65.8619ZM66.9962 67.4001C66.9637 67.4382 66.9308 67.476 66.8979 67.5137C66.9307 67.476 66.9637 67.4381 66.9962 67.4001ZM66.7816 67.6452C66.7425 67.6888 66.7035 67.7323 66.6639 67.7753C66.7035 67.7323 66.7425 67.6887 66.7816 67.6452ZM66.5144 67.9359C66.4842 67.9677 66.4535 67.9986 66.423 68.0301C66.4534 67.9986 66.4842 67.9677 66.5144 67.9359Z" fill="#FF0018"/>
<path fill-rule="evenodd" clip-rule="evenodd" d="M74.7314 45.0641C71.2502 45.0641 68.0734 46.3613 65.663 48.4949C66.0265 48.8167 66.3715 49.1583 66.6986 49.5166H64.6246C64.3805 49.7842 64.1477 50.0623 63.9254 50.3487H67.3991C67.5866 50.5901 67.7653 50.8383 67.9363 51.0922H63.3869C63.2043 51.3633 63.0306 51.6412 62.8677 51.9256H68.4569C68.6211 52.2122 68.7746 52.5056 68.9179 52.8048H62.4067C62.276 53.0777 62.1536 53.3557 62.0412 53.6383H69.2834C69.3835 53.8896 69.4752 54.1454 69.5603 54.4039H61.7643C61.5885 54.9378 61.4451 55.4865 61.3364 56.0473C61.3894 55.7745 61.4501 55.5042 61.5192 55.2373H69.8054C69.8745 55.5041 69.9352 55.7745 69.9881 56.0473H61.3364C61.2696 56.3924 61.2158 56.7414 61.1758 57.0953C61.184 57.0236 61.1929 56.9522 61.2022 56.8807H70.1224C70.1966 57.4521 70.236 58.035 70.236 58.6266C70.236 58.7814 70.2328 58.9354 70.2277 59.089H61.0969C61.1064 59.3689 61.1247 59.6457 61.1509 59.9211H70.175C70.1497 60.1868 70.1159 60.4493 70.0754 60.7102H61.2492C61.2928 60.9913 61.345 61.2686 61.4057 61.5437H69.9189C69.8587 61.8167 69.7905 62.0871 69.714 62.3536H61.6106C61.6915 62.6356 61.7821 62.913 61.8806 63.1871H69.444C69.3454 63.4618 69.2385 63.7322 69.1228 63.9984H62.2018C62.4421 64.5516 62.7189 65.0854 63.0283 65.5975C62.8773 65.3473 62.734 65.0923 62.5991 64.8319H68.7255C68.5905 65.0923 68.4474 65.3473 68.2963 65.5975H63.0283C63.2002 65.882 63.382 66.1605 63.5738 66.431H67.7494C67.5579 66.7011 67.356 66.9636 67.1458 67.2188H64.176C64.4133 67.5065 64.6624 67.7849 64.9223 68.0522H66.4009C66.1636 68.2965 65.9182 68.5323 65.663 68.7583C68.0734 70.8919 71.2502 72.1891 74.7314 72.1891C82.2658 72.1891 88.3728 66.117 88.3728 58.6266C88.3728 51.1362 82.2658 45.0641 74.7314 45.0641ZM63.5738 66.431C63.6216 66.4984 63.6702 66.5652 63.7192 66.6317C63.6702 66.5651 63.6216 66.4985 63.5738 66.431ZM62.2018 63.9984C62.0862 63.7322 61.9792 63.4618 61.8806 63.1871C61.9792 63.4618 62.0861 63.7322 62.2018 63.9984ZM61.0969 59.089C61.0943 59.0122 61.0928 58.9349 61.0914 58.8578C61.0927 58.9347 61.0944 59.0124 61.0969 59.089ZM61.0914 58.8578C61.09 58.7807 61.0886 58.704 61.0886 58.6266C61.0886 58.704 61.0901 58.7807 61.0914 58.8578ZM61.1758 57.0953C61.1596 57.2391 61.146 57.3836 61.1343 57.5287C61.1462 57.3838 61.1595 57.2389 61.1758 57.0953ZM61.1343 57.5287C61.1298 57.5843 61.1257 57.6404 61.1219 57.6962C61.1257 57.6402 61.1297 57.5845 61.1343 57.5287ZM61.7643 54.4039C61.7855 54.3393 61.8072 54.2743 61.8293 54.2101C61.807 54.2744 61.7856 54.3391 61.7643 54.4039ZM62.0412 53.6383C62.0207 53.6896 62.0015 53.7416 61.9816 53.7933C62.0014 53.7416 62.0207 53.6896 62.0412 53.6383ZM63.3869 51.0922C63.4296 51.0287 63.4733 50.9652 63.517 50.9025C63.4732 50.9653 63.4297 51.0286 63.3869 51.0922ZM63.517 50.9025C63.5608 50.8398 63.6052 50.7776 63.6499 50.7156C63.6051 50.7775 63.5608 50.8398 63.517 50.9025ZM62.6296 52.3604C62.5947 52.4268 62.5609 52.494 62.5271 52.5611C62.5608 52.4941 62.5948 52.4267 62.6296 52.3604ZM61.9581 53.8542C61.9374 53.909 61.9172 53.9639 61.8972 54.019C61.917 53.9639 61.9375 53.9089 61.9581 53.8542ZM61.1052 57.9648C61.1019 58.0345 61.0979 58.1039 61.0955 58.1739C61.0979 58.1042 61.1018 58.0342 61.1052 57.9648ZM61.1938 60.3171C61.1991 60.3591 61.2048 60.4011 61.2105 60.443C61.2047 60.401 61.1992 60.3592 61.1938 60.3171ZM61.4071 61.5506C61.4217 61.6168 61.4371 61.6828 61.4527 61.7486C61.4372 61.683 61.4216 61.6166 61.4071 61.5506ZM61.5026 61.9508C61.519 62.0154 61.5351 62.0803 61.5524 62.1446C61.5351 62.0803 61.5189 62.0155 61.5026 61.9508ZM64.9389 68.0688C64.993 68.1242 65.0473 68.1791 65.1023 68.2336C65.0473 68.1791 64.9929 68.1242 64.9389 68.0688Z" fill="#FFAA18"/>
<path d="M86.8718 66.3728C86.9797 66.3728 87.086 66.4005 87.1884 66.4568C87.2918 66.5113 87.3722 66.5914 87.4298 66.6952C87.4877 66.7984 87.5161 66.9058 87.5161 67.0181C87.5161 67.1291 87.4877 67.2363 87.4307 67.3388C87.3742 67.4412 87.2947 67.5216 87.1923 67.5781C87.09 67.6344 86.9829 67.6628 86.8716 67.6628C86.7595 67.6628 86.6523 67.6344 86.5499 67.5781C86.4476 67.5212 86.3684 67.4412 86.3116 67.3388C86.254 67.2363 86.2258 67.1291 86.2258 67.0181C86.2258 66.9058 86.2544 66.7984 86.3123 66.6952C86.3704 66.5914 86.451 66.5117 86.5539 66.4568C86.6577 66.4005 86.764 66.3728 86.8718 66.3728ZM86.8718 66.4791C86.7816 66.4791 86.6933 66.5025 86.607 66.5496C86.521 66.5955 86.4542 66.6619 86.4057 66.7488C86.3576 66.8346 86.3332 66.9245 86.3332 67.0177C86.3332 67.1109 86.3567 67.2001 86.4037 67.2852C86.4517 67.3701 86.5183 67.4367 86.6043 67.4847C86.6895 67.5315 86.7784 67.5552 86.8718 67.5552C86.9646 67.5552 87.0542 67.5315 87.1393 67.4847C87.2245 67.4367 87.2911 67.3701 87.3384 67.2852C87.3859 67.1994 87.4091 67.1109 87.4091 67.0177C87.4091 66.9245 87.385 66.8346 87.3368 66.7488C87.2889 66.6619 87.222 66.5955 87.1355 66.5496C87.05 66.5027 86.9624 66.4791 86.8718 66.4791ZM86.5893 67.3743V66.6802H86.8282C86.9094 66.6802 86.9689 66.6867 87.0049 66.7C87.0414 66.7124 87.07 66.7346 87.0923 66.7668C87.1141 66.7988 87.1252 66.8324 87.1252 66.8684C87.1252 66.9191 87.1067 66.9634 87.0702 67.0008C87.0346 67.0382 86.9867 67.0598 86.9268 67.0638C86.9507 67.0742 86.9705 67.0866 86.9858 67.1005C87.0135 67.128 87.0477 67.1739 87.0882 67.2381L87.1731 67.3741H87.036L86.975 67.2649C86.9263 67.1787 86.8874 67.1251 86.8577 67.1032C86.8372 67.0873 86.8072 67.0794 86.7678 67.0794H86.7023V67.3746L86.5893 67.3743V67.3743ZM86.7014 66.9837H86.8374C86.9025 66.9837 86.9464 66.974 86.9698 66.9546C86.9934 66.9357 87.0058 66.9098 87.0058 66.8776C87.0058 66.8571 87.0002 66.8387 86.9889 66.8231C86.9774 66.8065 86.9615 66.7945 86.941 66.7862C86.9205 66.7783 86.8838 66.7743 86.8288 66.7743H86.7016V66.9837" fill="#FFAA18"/>
<path d="M86.8718 60.8322C86.9797 60.8322 87.086 60.8599 87.1884 60.9161C87.2918 60.9706 87.3722 61.0508 87.4298 61.1546C87.4877 61.2577 87.5161 61.3651 87.5161 61.4775C87.5161 61.5885 87.4877 61.6957 87.4307 61.7981C87.3742 61.9006 87.2947 61.981 87.1923 62.0375C87.09 62.0938 86.9829 62.1221 86.8716 62.1221C86.7595 62.1221 86.6523 62.0938 86.5499 62.0375C86.4476 61.9805 86.3684 61.9006 86.3116 61.7981C86.254 61.6957 86.2258 61.5885 86.2258 61.4775C86.2258 61.3651 86.2544 61.2577 86.3123 61.1546C86.3704 61.0508 86.451 60.9711 86.5539 60.9161C86.6577 60.8599 86.764 60.8322 86.8718 60.8322ZM86.8718 60.9384C86.7816 60.9384 86.6933 60.9618 86.607 61.0089C86.521 61.0548 86.4542 61.1213 86.4057 61.2082C86.3576 61.294 86.3332 61.3838 86.3332 61.477C86.3332 61.5703 86.3567 61.6594 86.4037 61.7445C86.4517 61.8294 86.5183 61.8961 86.6043 61.944C86.6895 61.9909 86.7784 62.0145 86.8718 62.0145C86.9646 62.0145 87.0542 61.9909 87.1393 61.944C87.2245 61.8961 87.2911 61.8294 87.3384 61.7445C87.3859 61.6587 87.4091 61.5703 87.4091 61.477C87.4091 61.3838 87.385 61.294 87.3368 61.2082C87.2889 61.1213 87.222 61.0548 87.1355 61.0089C87.05 60.9621 86.9624 60.9384 86.8718 60.9384ZM86.5893 61.8337V61.1395H86.8282C86.9094 61.1395 86.9689 61.146 87.0049 61.1593C87.0414 61.1717 87.07 61.194 87.0923 61.2262C87.1141 61.2582 87.1252 61.2917 87.1252 61.3277C87.1252 61.3784 87.1067 61.4228 87.0702 61.4601C87.0346 61.4975 86.9867 61.5191 86.9268 61.5232C86.9507 61.5336 86.9705 61.5459 86.9858 61.5599C87.0135 61.5874 87.0477 61.6333 87.0882 61.6975L87.1731 61.8335H87.036L86.975 61.7243C86.9263 61.638 86.8874 61.5844 86.8577 61.5626C86.8372 61.5466 86.8072 61.5387 86.7678 61.5387H86.7023V61.8339L86.5893 61.8337V61.8337ZM86.7014 61.443H86.8374C86.9025 61.443 86.9464 61.4334 86.9698 61.414C86.9934 61.3951 87.0058 61.3692 87.0058 61.337C87.0058 61.3165 87.0002 61.298 86.9889 61.2825C86.9774 61.2658 86.9615 61.2539 86.941 61.2456C86.9205 61.2377 86.8838 61.2336 86.8288 61.2336H86.7016V61.443" fill="white"/>
<path d="M61.403 61.8638L61.5815 60.8283C61.484 60.8283 61.3406 60.8639 61.214 60.8639C60.7176 60.8639 60.6628 60.6384 60.6944 60.4717L61.0955 58.3588H61.85L62.0322 57.2134H61.3207L61.4656 56.5011H60.0394C60.008 56.528 59.1975 60.5072 59.1975 60.9918C59.1975 61.7091 59.669 62.0286 60.3339 62.0234C60.8545 62.0197 61.26 61.8966 61.403 61.8638Z" fill="white"/>
<path d="M61.8547 59.8894C61.8547 61.611 63.1851 62.0201 64.3184 62.0201C65.3645 62.0201 65.8249 61.8204 65.8249 61.8204L66.0761 60.6454C66.0761 60.6454 65.2803 60.9448 64.5617 60.9448C63.0303 60.9448 63.2984 59.9695 63.2984 59.9695H66.1968C66.1968 59.9695 66.3839 59.1801 66.3839 58.8584C66.3839 58.0557 65.9162 57.0776 64.3503 57.0776C62.9163 57.0779 61.8547 58.3978 61.8547 59.8894ZM64.3558 58.1687C65.1606 58.1687 65.0122 58.9413 65.0122 59.0038H63.4288C63.4288 58.924 63.5784 58.1687 64.3558 58.1687Z" fill="white"/>
<path d="M73.3869 61.8632L73.6421 60.5351C73.6421 60.5351 72.9423 60.8348 72.462 60.8348C71.4504 60.8348 71.0446 60.1749 71.0446 59.466C71.0446 58.0278 71.9151 57.2366 72.8841 57.2366C73.6108 57.2366 74.194 57.5851 74.194 57.5851L74.4268 56.2947C74.4268 56.2947 73.562 55.9957 72.8206 55.9957C71.1742 55.9957 69.5725 57.2158 69.5725 59.5072C69.5725 61.0266 70.4374 62.0301 72.1393 62.0301C72.6205 62.0302 73.3869 61.8632 73.3869 61.8632Z" fill="white"/>
<path d="M53.559 57.0966C52.581 57.0966 51.8314 57.365 51.8314 57.365L51.6244 58.4145C51.6244 58.4145 52.2432 58.1998 53.1785 58.1998C53.7096 58.1998 54.0981 58.2508 54.0981 58.6194C54.0981 58.8434 54.0504 58.926 54.0504 58.926C54.0504 58.926 53.6315 58.8961 53.4376 58.8961C52.2042 58.8961 50.9084 59.3457 50.9084 60.7014C50.9084 61.7696 51.7585 62.0147 52.2853 62.0147C53.2916 62.0147 53.7253 61.4569 53.7484 61.4552L53.7014 61.9208H54.9572L55.5174 58.5657C55.5174 57.1424 54.0639 57.0966 53.559 57.0966ZM53.8645 59.8283C53.8917 60.0332 53.7141 60.9938 52.8554 60.9938C52.4125 60.9938 52.2973 60.7048 52.2973 60.5339C52.2973 60.2004 52.5094 59.8001 53.5544 59.8001C53.7975 59.8004 53.8235 59.8226 53.8645 59.8283Z" fill="white"/>
<path d="M56.852 61.9902C57.1733 61.9902 59.0098 62.0599 59.0098 60.4412C59.0098 58.9279 57.3098 59.2268 57.3098 58.6189C57.3098 58.3162 57.5869 58.2209 58.0933 58.2209C58.2944 58.2209 59.068 58.2755 59.068 58.2755L59.2479 57.1998C59.2479 57.1999 58.7472 57.1041 57.932 57.1041C56.877 57.1041 55.8061 57.4639 55.8061 58.6948C55.8061 60.0896 57.5917 59.9496 57.5917 60.5372C57.5917 60.9294 57.0929 60.9612 56.7084 60.9612C56.0431 60.9612 55.444 60.7663 55.4419 60.7756L55.2517 61.8404C55.2862 61.8494 55.6556 61.9902 56.852 61.9902Z" fill="white"/>
<path d="M85.2004 56.1313L84.8928 57.7619C84.8928 57.7619 84.3559 57.1285 83.5156 57.1285C82.2088 57.1285 81.1196 58.4743 81.1196 60.0207C81.1196 61.0189 81.7006 61.997 82.8882 61.997C83.7425 61.997 84.2161 61.4882 84.2161 61.4882L84.1534 61.9227H85.5405L86.63 56.1294L85.2004 56.1313ZM84.5381 59.3106C84.5381 59.9541 84.1652 60.8136 83.3919 60.8136C82.8787 60.8136 82.6382 60.4456 82.6382 59.868C82.6382 58.9235 83.1348 58.3003 83.7614 58.3003C84.2748 58.3001 84.5381 58.6014 84.5381 59.3106Z" fill="white"/>
<path d="M45.8367 61.9278L46.7049 57.554L46.8324 61.9278H47.815L49.648 57.554L48.836 61.9278H50.2961L51.4205 56.1267H49.1627L47.7567 59.6861L47.6835 56.1267H45.6023L44.4617 61.9278H45.8367Z" fill="white"/>
<path d="M67.81 61.9357C68.2251 59.9192 68.3021 58.2817 69.2927 58.5814C69.4661 57.801 69.6335 57.499 69.8228 57.1687C69.8228 57.1687 69.734 57.1528 69.5478 57.1528C68.9091 57.1528 68.4359 57.8982 68.4359 57.8982L68.563 57.2137H67.2351L66.3455 61.9357H67.81Z" fill="white"/>
<path d="M76.6775 57.0966C75.6995 57.0966 74.9499 57.365 74.9499 57.365L74.743 58.4145C74.743 58.4145 75.3618 58.1998 76.2971 58.1998C76.8282 58.1998 77.2164 58.2508 77.2164 58.6194C77.2164 58.8434 77.1691 58.926 77.1691 58.926C77.1691 58.926 76.7502 58.8961 76.5561 58.8961C75.3228 58.8961 74.0271 59.3457 74.0271 60.7014C74.0271 61.7696 74.877 62.0147 75.4038 62.0147C76.41 62.0147 76.8438 61.4569 76.8667 61.4552L76.82 61.9208C76.82 61.9208 78.0754 61.9208 78.0758 61.9208L78.6359 58.5657C78.6361 57.1424 77.1824 57.0966 76.6775 57.0966ZM76.9834 59.8283C77.0106 60.0332 76.8329 60.9938 75.9739 60.9938C75.531 60.9938 75.4161 60.7048 75.4161 60.5339C75.4161 60.2004 75.6282 59.8001 76.6731 59.8001C76.9162 59.8004 76.942 59.8226 76.9834 59.8283Z" fill="white"/>
<path d="M79.784 61.9357C80.1993 59.9192 80.2762 58.2817 81.2666 58.5814C81.4403 57.801 81.6078 57.499 81.7969 57.1687C81.7969 57.1687 81.7081 57.1528 81.5219 57.1528C80.8832 57.1528 80.41 57.8982 80.41 57.8982L80.5371 57.2137H79.2092L78.3196 61.9357H79.784Z" fill="white"/>
</g>
<defs>
<filter id="filter0_d_588_133" x="0.662354" y="0.626587" width="130" height="130" filterUnits="userSpaceOnUse" color-interpolation-filters="sRGB">
<feFlood flood-opacity="0" result="BackgroundImageFix"/>
<feColorMatrix in="SourceAlpha" type="matrix" values="0 0 0 0 0 0 0 0 0 0 0 0 0 0 0 0 0 0 127 0" result="hardAlpha"/>
<feOffset dy="7"/>
<feGaussianBlur stdDeviation="15"/>
<feColorMatrix type="matrix" values="0 0 0 0 0.163717 0 0 0 0 0.0672049 0 0 0 0 0.329167 0 0 0 0.3 0"/>
<feBlend mode="multiply" in2="BackgroundImageFix" result="effect1_dropShadow_588_133"/>
<feBlend mode="normal" in="SourceGraphic" in2="effect1_dropShadow_588_133" result="shape"/>
</filter>
<clipPath id="clip0_588_133">
<rect width="45.4211" height="27.125" fill="white" transform="translate(42.9517 45.0641)"/>
</clipPath>
</defs>
</svg>
