<svg width="99" height="19" viewBox="0 0 99 19" fill="none" xmlns="http://www.w3.org/2000/svg">
<path d="M9.5 1.70068L11.8175 6.39568L17 7.15318L13.25 10.8057L14.135 15.9657L9.5 13.5282L4.865 15.9657L5.75 10.8057L2 7.15318L7.1825 6.39568L9.5 1.70068Z" fill="#EFBA34"/>
<path d="M29.5 1.70068L31.8175 6.39568L37 7.15318L33.25 10.8057L34.135 15.9657L29.5 13.5282L24.865 15.9657L25.75 10.8057L22 7.15318L27.1825 6.39568L29.5 1.70068Z" fill="#EFBA34"/>
<path d="M49.5 1.70068L51.8175 6.39568L57 7.15318L53.25 10.8057L54.135 15.9657L49.5 13.5282L44.865 15.9657L45.75 10.8057L42 7.15318L47.1825 6.39568L49.5 1.70068Z" fill="#EFBA34"/>
<path d="M69.5 1.70068L71.8175 6.39568L77 7.15318L73.25 10.8057L74.135 15.9657L69.5 13.5282L64.865 15.9657L65.75 10.8057L62 7.15318L67.1825 6.39568L69.5 1.70068Z" fill="#EFBA34"/>
<path d="M89.5 1.70068L91.8175 6.39568L97 7.15318L93.25 10.8057L94.135 15.9657L89.5 13.5282L84.865 15.9657L85.75 10.8057L82 7.15318L87.1825 6.39568L89.5 1.70068Z" fill="#EFBA34"/>
</svg>
