<svg width="165" height="49" viewBox="0 0 165 49" fill="none" xmlns="http://www.w3.org/2000/svg">
<rect y="0.0498047" width="48" height="48" rx="24" fill="#6D27E5"/>
<path d="M69.5703 27.4717H74.7344V29.0498H67.5938V17.6748H69.5703V27.4717ZM82.8984 23.9717H78.2266V27.4717H83.6875V29.0498H76.25V17.6748H83.6328V19.2686H78.2266V22.4092H82.8984V23.9717ZM91.6641 26.4014H87.2578L86.3359 29.0498H84.2812L88.5781 17.6748H90.3516L94.6562 29.0498H92.5938L91.6641 26.4014ZM87.8125 24.8076H91.1094L89.4609 20.0889L87.8125 24.8076ZM100.133 24.667H97.9297V29.0498H95.9531V17.6748H99.9531C101.266 17.6748 102.279 17.9691 102.992 18.5576C103.706 19.1462 104.062 19.9977 104.062 21.1123C104.062 21.8727 103.878 22.5107 103.508 23.0264C103.143 23.5368 102.633 23.93 101.977 24.2061L104.531 28.9482V29.0498H102.414L100.133 24.667ZM97.9297 23.0811H99.9609C100.628 23.0811 101.148 22.9144 101.523 22.5811C101.898 22.2425 102.086 21.7816 102.086 21.1982C102.086 20.5889 101.911 20.1175 101.562 19.7842C101.219 19.4508 100.703 19.279 100.016 19.2686H97.9297V23.0811ZM114.961 29.0498H112.984L107.914 20.9795V29.0498H105.938V17.6748H107.914L113 25.7764V17.6748H114.961V29.0498ZM123.844 17.6748L127.125 26.3936L130.398 17.6748H132.953V29.0498H130.984V25.2998L131.18 20.2842L127.82 29.0498H126.406L123.055 20.292L123.25 25.2998V29.0498H121.281V17.6748H123.844ZM144.375 23.6592C144.375 24.7738 144.182 25.7529 143.797 26.5967C143.411 27.4352 142.859 28.0811 142.141 28.5342C141.427 28.9821 140.604 29.2061 139.672 29.2061C138.75 29.2061 137.927 28.9821 137.203 28.5342C136.484 28.0811 135.927 27.4378 135.531 26.6045C135.141 25.7712 134.943 24.8102 134.938 23.7217V23.0811C134.938 21.9717 135.133 20.9925 135.523 20.1436C135.919 19.2946 136.474 18.6462 137.188 18.1982C137.906 17.7451 138.729 17.5186 139.656 17.5186C140.583 17.5186 141.404 17.7425 142.117 18.1904C142.836 18.6331 143.391 19.2738 143.781 20.1123C144.172 20.9456 144.37 21.917 144.375 23.0264V23.6592ZM142.398 23.0654C142.398 21.805 142.159 20.8389 141.68 20.167C141.206 19.4951 140.531 19.1592 139.656 19.1592C138.802 19.1592 138.133 19.4951 137.648 20.167C137.169 20.8337 136.924 21.779 136.914 23.0029V23.6592C136.914 24.9092 137.156 25.8753 137.641 26.5576C138.13 27.2399 138.807 27.5811 139.672 27.5811C140.547 27.5811 141.219 27.2477 141.688 26.5811C142.161 25.9144 142.398 24.9404 142.398 23.6592V23.0654ZM150.523 24.667H148.32V29.0498H146.344V17.6748H150.344C151.656 17.6748 152.669 17.9691 153.383 18.5576C154.096 19.1462 154.453 19.9977 154.453 21.1123C154.453 21.8727 154.268 22.5107 153.898 23.0264C153.534 23.5368 153.023 23.93 152.367 24.2061L154.922 28.9482V29.0498H152.805L150.523 24.667ZM148.32 23.0811H150.352C151.018 23.0811 151.539 22.9144 151.914 22.5811C152.289 22.2425 152.477 21.7816 152.477 21.1982C152.477 20.5889 152.302 20.1175 151.953 19.7842C151.609 19.4508 151.094 19.279 150.406 19.2686H148.32V23.0811ZM162.977 23.9717H158.305V27.4717H163.766V29.0498H156.328V17.6748H163.711V19.2686H158.305V22.4092H162.977V23.9717Z" fill="#6D27E5"/>
<path d="M22.3594 28.6592C21.9844 29.0029 21.9688 29.3467 22.3125 29.6904C22.6875 30.0342 23.0469 30.0342 23.3906 29.6904L28.2656 24.8154C28.4219 24.6904 28.5 24.5186 28.5 24.2998C28.5 24.0811 28.4219 23.9092 28.2656 23.7842L23.3906 18.9092C23.0469 18.5654 22.6875 18.5654 22.3125 18.9092C21.9688 19.2529 21.9844 19.5967 22.3594 19.9404L26.6719 24.2998L22.3594 28.6592Z" fill="white"/>
</svg>
