<svg width="185" height="58" viewBox="0 0 185 58" fill="none" xmlns="http://www.w3.org/2000/svg">
<rect width="185" height="58" rx="29" fill="white"/>
<path d="M66.1538 23.75C68.8129 23.75 70.3129 22.0966 70.3129 19.3693C70.3129 16.6591 68.8129 15.0227 66.2731 15.0227H63.4606V23.75H66.1538ZM64.5174 22.8125V15.9602H66.2049C68.2504 15.9602 69.2902 17.2557 69.2902 19.3693C69.2902 21.5 68.2504 22.8125 66.0856 22.8125H64.5174ZM74.6084 23.8864C76.3811 23.8864 77.5743 22.5398 77.5743 20.5114C77.5743 18.4659 76.3811 17.1193 74.6084 17.1193C72.8356 17.1193 71.6424 18.4659 71.6424 20.5114C71.6424 22.5398 72.8356 23.8864 74.6084 23.8864ZM74.6084 22.983C73.2618 22.983 72.6481 21.8239 72.6481 20.5114C72.6481 19.1989 73.2618 18.0227 74.6084 18.0227C75.9549 18.0227 76.5686 19.1989 76.5686 20.5114C76.5686 21.8239 75.9549 22.983 74.6084 22.983ZM80.3697 23.75H81.3584L82.7902 18.7216H82.8924L84.3243 23.75H85.3129L87.3072 17.2045H86.2504L84.8356 22.1989H84.7674L83.3868 17.2045H82.3129L80.9152 22.2159H80.847L79.4322 17.2045H78.3754L80.3697 23.75ZM89.6424 19.8125C89.6424 18.6705 90.3498 18.0227 91.3129 18.0227C92.2461 18.0227 92.8129 18.6321 92.8129 19.6591V23.75H93.8186V19.5909C93.8186 17.9205 92.928 17.1193 91.6027 17.1193C90.614 17.1193 90.0004 17.5625 89.6936 18.2273H89.6084V17.2045H88.6368V23.75H89.6424V19.8125ZM96.662 15.0227H95.6563V23.75H96.662V15.0227ZM101.163 23.8864C102.936 23.8864 104.129 22.5398 104.129 20.5114C104.129 18.4659 102.936 17.1193 101.163 17.1193C99.3903 17.1193 98.1971 18.4659 98.1971 20.5114C98.1971 22.5398 99.3903 23.8864 101.163 23.8864ZM101.163 22.983C99.8165 22.983 99.2028 21.8239 99.2028 20.5114C99.2028 19.1989 99.8165 18.0227 101.163 18.0227C102.51 18.0227 103.123 19.1989 103.123 20.5114C103.123 21.8239 102.51 22.983 101.163 22.983ZM107.59 23.9034C108.732 23.9034 109.329 23.2898 109.533 22.8636H109.585V23.75H110.59V19.4375C110.59 17.358 109.005 17.1193 108.17 17.1193C107.181 17.1193 106.056 17.4602 105.545 18.6534L106.499 18.9943C106.721 18.517 107.245 18.0057 108.204 18.0057C109.129 18.0057 109.585 18.4957 109.585 19.3352V19.3693C109.585 19.8551 109.09 19.8125 107.897 19.9659C106.683 20.1236 105.357 20.392 105.357 21.892C105.357 23.1705 106.346 23.9034 107.59 23.9034ZM107.744 23C106.943 23 106.363 22.642 106.363 21.9432C106.363 21.1761 107.062 20.9375 107.846 20.8352C108.272 20.7841 109.414 20.6648 109.585 20.4602V21.3807C109.585 22.1989 108.937 23 107.744 23ZM113.432 19.8125C113.432 18.6705 114.139 18.0227 115.102 18.0227C116.035 18.0227 116.602 18.6321 116.602 19.6591V23.75H117.608V19.5909C117.608 17.9205 116.717 17.1193 115.392 17.1193C114.403 17.1193 113.789 17.5625 113.483 18.2273H113.397V17.2045H112.426V23.75H113.432V19.8125ZM125.479 23.8864C127.252 23.8864 128.445 22.5398 128.445 20.5114C128.445 18.4659 127.252 17.1193 125.479 17.1193C123.707 17.1193 122.514 18.4659 122.514 20.5114C122.514 22.5398 123.707 23.8864 125.479 23.8864ZM125.479 22.983C124.133 22.983 123.519 21.8239 123.519 20.5114C123.519 19.1989 124.133 18.0227 125.479 18.0227C126.826 18.0227 127.44 19.1989 127.44 20.5114C127.44 21.8239 126.826 22.983 125.479 22.983ZM130.986 19.8125C130.986 18.6705 131.694 18.0227 132.657 18.0227C133.59 18.0227 134.157 18.6321 134.157 19.6591V23.75H135.162V19.5909C135.162 17.9205 134.272 17.1193 132.946 17.1193C131.958 17.1193 131.344 17.5625 131.037 18.2273H130.952V17.2045H129.981V23.75H130.986V19.8125ZM143.222 17.2045H141.824V15.6364H140.818V17.2045H139.83V18.0568H140.818V22.1477C140.818 23.2898 141.739 23.8352 142.591 23.8352C142.966 23.8352 143.205 23.767 143.341 23.7159L143.136 22.8125C143.051 22.8295 142.915 22.8636 142.693 22.8636C142.25 22.8636 141.824 22.7273 141.824 21.875V18.0568H143.222V17.2045ZM145.881 19.8125C145.881 18.6705 146.609 18.0227 147.602 18.0227C148.548 18.0227 149.119 18.6193 149.119 19.6591V23.75H150.125V19.5909C150.125 17.9077 149.23 17.1193 147.892 17.1193C146.861 17.1193 146.273 17.5497 145.966 18.2273H145.881V15.0227H144.875V23.75H145.881V19.8125ZM154.709 23.8864C156.039 23.8864 157.01 23.2216 157.317 22.233L156.346 21.9602C156.09 22.642 155.498 22.983 154.709 22.983C153.529 22.983 152.715 22.2202 152.668 20.8182H157.419V20.392C157.419 17.9545 155.971 17.1193 154.607 17.1193C152.834 17.1193 151.658 18.517 151.658 20.5284C151.658 22.5398 152.817 23.8864 154.709 23.8864ZM152.668 19.9489C152.736 18.9304 153.456 18.0227 154.607 18.0227C155.698 18.0227 156.397 18.8409 156.397 19.9489H152.668Z" fill="#171D24"/>
<path d="M65.3761 44.25L66.4564 41.022H71.3782L72.4649 44.25H74.9961L70.3811 31.1591H67.4535L62.8449 44.25H65.3761ZM67.0956 39.1172L68.8662 33.8438H68.9684L70.739 39.1172H67.0956ZM76.6181 47.9318H78.932V42.7031H79.0279C79.3923 43.419 80.1529 44.4226 81.8404 44.4226C84.1543 44.4226 85.8866 42.5881 85.8866 39.3537C85.8866 36.081 84.1032 34.304 81.834 34.304C80.1018 34.304 79.3795 35.3459 79.0279 36.0554H78.8937V34.4318H76.6181V47.9318ZM78.8873 39.3409C78.8873 37.4361 79.7055 36.2024 81.1948 36.2024C82.7353 36.2024 83.5279 37.5128 83.5279 39.3409C83.5279 41.1818 82.7225 42.5241 81.1948 42.5241C79.7183 42.5241 78.8873 41.2457 78.8873 39.3409ZM87.8681 47.9318H90.182V42.7031H90.2779C90.6423 43.419 91.4029 44.4226 93.0904 44.4226C95.4043 44.4226 97.1366 42.5881 97.1366 39.3537C97.1366 36.081 95.3532 34.304 93.084 34.304C91.3518 34.304 90.6295 35.3459 90.2779 36.0554H90.1437V34.4318H87.8681V47.9318ZM90.1373 39.3409C90.1373 37.4361 90.9555 36.2024 92.4448 36.2024C93.9853 36.2024 94.7779 37.5128 94.7779 39.3409C94.7779 41.1818 93.9725 42.5241 92.4448 42.5241C90.9683 42.5241 90.1373 41.2457 90.1373 39.3409ZM101.432 31.1591H99.1181V44.25H101.432V31.1591ZM108.158 44.4418C110.446 44.4418 112.019 43.3232 112.428 41.6165L110.267 41.3736C109.954 42.2045 109.187 42.6392 108.19 42.6392C106.694 42.6392 105.704 41.6548 105.684 39.9737H112.524V39.2642C112.524 35.8189 110.453 34.304 108.037 34.304C105.224 34.304 103.39 36.3686 103.39 39.3984C103.39 42.4794 105.199 44.4418 108.158 44.4418ZM105.691 38.4141C105.761 37.1612 106.688 36.1065 108.069 36.1065C109.398 36.1065 110.293 37.0781 110.306 38.4141H105.691ZM126.163 34.7578H128.445C128.4 32.5462 126.514 30.9801 123.727 30.9801C120.979 30.9801 118.914 32.527 118.921 34.8409C118.921 36.7202 120.257 37.8004 122.411 38.3565L123.9 38.7401C125.313 39.098 126.246 39.5391 126.252 40.5554C126.246 41.674 125.185 42.4219 123.638 42.4219C122.155 42.4219 121.004 41.7571 120.909 40.3828H118.576C118.671 42.9844 120.608 44.4482 123.657 44.4482C126.796 44.4482 128.617 42.8821 128.624 40.5746C128.617 38.3054 126.745 37.2699 124.776 36.8033L123.549 36.4964C122.475 36.2408 121.311 35.7869 121.324 34.6939C121.33 33.7095 122.213 32.9872 123.696 32.9872C125.108 32.9872 126.041 33.6456 126.163 34.7578ZM135.538 34.4318H133.602V32.0795H131.288V34.4318H129.894V36.2216H131.288V41.6804C131.275 43.5277 132.617 44.4354 134.356 44.3842C135.014 44.3651 135.468 44.2372 135.717 44.1541L135.327 42.3452C135.2 42.3771 134.938 42.4347 134.65 42.4347C134.068 42.4347 133.602 42.2301 133.602 41.2969V36.2216H135.538V34.4318ZM141.651 44.4418C144.527 44.4418 146.355 42.4155 146.355 39.3793C146.355 36.3366 144.527 34.304 141.651 34.304C138.774 34.304 136.946 36.3366 136.946 39.3793C136.946 42.4155 138.774 44.4418 141.651 44.4418ZM141.664 42.5881C140.072 42.5881 139.292 41.169 139.292 39.3729C139.292 37.5767 140.072 36.1385 141.664 36.1385C143.23 36.1385 144.009 37.5767 144.009 39.3729C144.009 41.169 143.23 42.5881 141.664 42.5881ZM148.319 44.25H150.633V38.478C150.633 37.2315 151.573 36.3494 152.845 36.3494C153.235 36.3494 153.721 36.4197 153.919 36.4837V34.3551C153.708 34.3168 153.343 34.2912 153.088 34.2912C151.963 34.2912 151.023 34.9304 150.665 36.0682H150.563V34.4318H148.319V44.25ZM159.398 44.4418C161.687 44.4418 163.259 43.3232 163.668 41.6165L161.508 41.3736C161.194 42.2045 160.427 42.6392 159.43 42.6392C157.935 42.6392 156.944 41.6548 156.925 39.9737H163.764V39.2642C163.764 35.8189 161.693 34.304 159.277 34.304C156.464 34.304 154.63 36.3686 154.63 39.3984C154.63 42.4794 156.439 44.4418 159.398 44.4418ZM156.931 38.4141C157.001 37.1612 157.928 36.1065 159.309 36.1065C160.638 36.1065 161.533 37.0781 161.546 38.4141H156.931Z" fill="#171D24"/>
<path d="M45.5832 29.9963C45.5664 27.1274 46.8662 24.9652 49.4911 23.3709C48.023 21.2676 45.8019 20.1108 42.8742 19.8879C40.102 19.6692 37.0691 21.5032 35.9586 21.5032C34.7849 21.5032 32.1011 19.9636 29.9894 19.9636C25.6314 20.0309 21 23.4382 21 30.3707C21 32.4193 21.3744 34.5352 22.1232 36.7142C23.1243 39.583 26.7336 46.6122 30.4984 46.4986C32.4671 46.4524 33.8595 45.1021 36.4213 45.1021C38.9074 45.1021 40.1946 46.4986 42.3904 46.4986C46.1889 46.444 49.4532 40.0542 50.4039 37.1769C45.3098 34.7749 45.5832 30.1435 45.5832 29.9963ZM41.1621 17.1662C43.2948 14.6339 43.1013 12.3287 43.0382 11.5C41.1537 11.6094 38.9747 12.783 37.7337 14.2259C36.3666 15.7739 35.5631 17.6879 35.7356 19.8458C37.7716 20.0015 39.6309 18.954 41.1621 17.1662Z" fill="#171D24"/>
</svg>
