<svg width="195" height="58" viewBox="0 0 195 58" fill="none" xmlns="http://www.w3.org/2000/svg">
<rect width="195" height="58" rx="29" fill="white"/>
<path d="M73.5227 15.25H74.6136C74.2898 13.5625 72.875 12.4034 71.0341 12.4034C68.7969 12.4034 67.2159 14.125 67.2159 16.8864C67.2159 19.6477 68.7841 21.3693 71.1023 21.3693C73.1818 21.3693 74.6648 19.9844 74.6648 17.8239V16.8864H71.3409V17.8239H73.642C73.6122 19.392 72.581 20.3807 71.1023 20.3807C69.483 20.3807 68.2386 19.1534 68.2386 16.8864C68.2386 14.6193 69.483 13.392 71.0341 13.392C72.2955 13.392 73.152 14.1037 73.5227 15.25ZM76.4748 21.25H81.81V20.3125H77.5316V17.3466H81.4691V16.4091H77.5316V13.4602H81.7418V12.5227H76.4748V21.25ZM83.1694 13.4602H85.9137V21.25H86.9705V13.4602H89.7148V12.5227H83.1694V13.4602ZM95.7777 12.5227H94.7209V21.25H95.7777V12.5227ZM97.4194 13.4602H100.164V21.25H101.221V13.4602H103.965V12.5227H97.4194V13.4602ZM116.335 16.8864C116.335 14.125 114.715 12.4034 112.482 12.4034C110.249 12.4034 108.63 14.125 108.63 16.8864C108.63 19.6477 110.249 21.3693 112.482 21.3693C114.715 21.3693 116.335 19.6477 116.335 16.8864ZM115.312 16.8864C115.312 19.1534 114.067 20.3807 112.482 20.3807C110.897 20.3807 109.653 19.1534 109.653 16.8864C109.653 14.6193 110.897 13.392 112.482 13.392C114.067 13.392 115.312 14.6193 115.312 16.8864ZM125.032 12.5227H123.992V19.392H123.907L119.134 12.5227H118.112V21.25H119.168V14.3977H119.254L124.009 21.25H125.032V12.5227Z" fill="#171D24"/>
<path d="M73.556 29.078C70.028 29.078 67.166 31.724 67.166 35.468C67.166 39.23 70.028 41.858 73.556 41.858C76.922 41.858 79.37 39.392 79.748 36.494V34.892H72.854V36.53H77.552C77.246 38.636 75.824 40.004 73.556 40.004C71.072 40.004 69.272 38.222 69.272 35.468C69.272 32.714 71.072 30.95 73.556 30.95C75.05 30.95 76.238 31.58 76.904 32.84H79.37C78.416 30.392 76.166 29.078 73.556 29.078ZM91.2219 36.782C91.2219 33.668 88.9899 31.67 86.1639 31.67C83.3379 31.67 81.1059 33.668 81.1059 36.782C81.1059 39.896 83.2479 41.912 86.0739 41.912C88.9179 41.912 91.2219 39.896 91.2219 36.782ZM83.1939 36.782C83.1939 34.532 84.5799 33.452 86.1279 33.452C87.6579 33.452 89.1159 34.532 89.1159 36.782C89.1159 39.032 87.6039 40.13 86.0739 40.13C84.5259 40.13 83.1939 39.032 83.1939 36.782ZM102.7 36.782C102.7 33.668 100.468 31.67 97.6424 31.67C94.8164 31.67 92.5844 33.668 92.5844 36.782C92.5844 39.896 94.7264 41.912 97.5524 41.912C100.396 41.912 102.7 39.896 102.7 36.782ZM94.6724 36.782C94.6724 34.532 96.0584 33.452 97.6064 33.452C99.1364 33.452 100.594 34.532 100.594 36.782C100.594 39.032 99.0824 40.13 97.5524 40.13C96.0044 40.13 94.6724 39.032 94.6724 36.782ZM104.045 36.746C104.045 39.806 106.115 41.912 108.725 41.912C110.345 41.912 111.533 41.102 112.163 40.256V41.912C112.163 43.892 110.975 44.864 109.391 44.864C107.969 44.864 106.871 44.162 106.565 43.136H104.531C104.783 45.332 106.745 46.646 109.391 46.646C112.487 46.646 114.233 44.612 114.233 41.912V31.832H112.163V33.272C111.551 32.426 110.345 31.67 108.725 31.67C106.115 31.67 104.045 33.686 104.045 36.746ZM112.163 36.782C112.163 38.924 110.705 40.13 109.157 40.13C107.627 40.13 106.151 38.888 106.151 36.746C106.151 34.604 107.627 33.452 109.157 33.452C110.705 33.452 112.163 34.658 112.163 36.782ZM116.928 41.75H118.98V28.43H116.928V41.75ZM125.85 33.398C127.38 33.398 128.586 34.37 128.622 35.9H123.132C123.348 34.334 124.464 33.398 125.85 33.398ZM130.494 38.798H128.28C127.902 39.572 127.2 40.184 125.94 40.184C124.428 40.184 123.258 39.194 123.114 37.556H130.692C130.746 37.214 130.764 36.89 130.764 36.548C130.764 33.632 128.766 31.67 125.94 31.67C123.006 31.67 120.99 33.668 120.99 36.782C120.99 39.896 123.096 41.912 125.94 41.912C128.37 41.912 129.936 40.526 130.494 38.798ZM139.511 35V30.914H141.779C143.381 30.914 144.101 31.67 144.101 32.966C144.101 34.226 143.381 35 141.779 35H139.511ZM146.207 32.966C146.207 30.932 144.749 29.24 141.779 29.24H137.459V41.75H139.511V36.674H141.779C145.037 36.674 146.207 34.748 146.207 32.966ZM148.164 41.75H150.216V28.43H148.164V41.75ZM152.227 36.746C152.227 39.806 154.297 41.912 156.871 41.912C158.527 41.912 159.715 41.12 160.345 40.274V41.75H162.415V31.832H160.345V33.272C159.733 32.462 158.581 31.67 156.907 31.67C154.297 31.67 152.227 33.686 152.227 36.746ZM160.345 36.782C160.345 38.924 158.887 40.13 157.339 40.13C155.809 40.13 154.333 38.888 154.333 36.746C154.333 34.604 155.809 33.452 157.339 33.452C158.887 33.452 160.345 34.658 160.345 36.782ZM169.016 39.392L166.226 31.832H163.94L167.846 41.588L165.83 46.412H167.954L174.038 31.832H171.914L169.016 39.392Z" fill="#171D24"/>
<g clip-path="url(#clip0_584_110)">
<path d="M43.8168 27.5169L28.7296 12.3892L47.9249 23.4088L43.8168 27.5169ZM24.7932 11.5C23.904 11.9648 23.3101 12.8125 23.3101 13.9128V44.0795C23.3101 45.1798 23.9051 46.0275 24.7932 46.4923L42.3347 28.9923L24.7932 11.5ZM53.8585 26.9219L49.8324 24.5911L45.3415 29L49.8324 33.4089L53.9405 31.0781C55.171 30.1014 55.171 27.8997 53.8585 26.9219ZM28.7307 45.6119L47.926 34.5923L43.8179 30.4842L28.7307 45.6119Z" fill="#171D24"/>
</g>
<defs>
<clipPath id="clip0_584_110">
<rect width="35" height="35" fill="white" transform="translate(21.5796 11.5)"/>
</clipPath>
</defs>
</svg>
