<svg width="56" height="56" viewBox="0 0 56 56" fill="none" xmlns="http://www.w3.org/2000/svg">
<path opacity="0.15" d="M2.55012 34.4553C0.301445 40.0771 4.42404 47.1042 6.76642 49.9151C13.7935 58.3477 43.3076 56.9423 50.3348 41.4825C57.362 26.0227 54.5511 11.9684 41.9022 3.53583C29.2533 -4.89676 12.3882 3.53584 13.7935 11.9684C15.199 20.401 5.36099 27.4282 2.55012 34.4553Z" fill="#FF8E26"/>
<path d="M49.4844 6.05856H20.2656C18.3671 6.05856 16.8281 7.59758 16.8281 9.49606V24.9648C16.8281 26.8633 18.3671 28.4023 20.2656 28.4023H49.4844C51.3829 28.4023 52.9219 26.8633 52.9219 24.9648V9.49606C52.9219 7.59758 51.3829 6.05856 49.4844 6.05856Z" fill="#FFDAAA"/>
<path d="M49.4844 6.05856H46.9062C47.8179 6.05856 48.6923 6.42073 49.3369 7.06538C49.9816 7.71004 50.3438 8.58438 50.3438 9.49606V24.9648C50.3438 25.8765 49.9816 26.7508 49.3369 27.3955C48.6923 28.0401 47.8179 28.4023 46.9062 28.4023H49.4844C50.3961 28.4023 51.2704 28.0401 51.9151 27.3955C52.5597 26.7508 52.9219 25.8765 52.9219 24.9648V9.49606C52.9219 8.58438 52.5597 7.71004 51.9151 7.06538C51.2704 6.42073 50.3961 6.05856 49.4844 6.05856Z" fill="#FFC477"/>
<path d="M19.7623 45.234C20.0845 44.9117 20.5216 44.7305 20.9774 44.7304H32.2352C32.8394 44.7325 33.433 44.5722 33.954 44.2664L47.2932 36.5664C47.8851 36.2238 48.3169 35.6605 48.4941 35C48.6713 34.3396 48.5794 33.6358 48.2385 33.0429C47.9885 32.6084 47.6144 32.2583 47.1643 32.0375C46.7831 31.8436 46.3597 31.7475 45.9321 31.758C45.5045 31.7685 45.0863 31.8852 44.7151 32.0976L34.712 37.8726C34.5907 38.2296 34.3876 38.5534 34.119 38.8179C33.88 39.0577 33.5961 39.2479 33.2834 39.3777C32.9708 39.5074 32.6356 39.5742 32.2971 39.5742C32.6356 39.5742 32.9708 39.5074 33.2834 39.3777C33.5961 39.2479 33.88 39.0577 34.119 38.8179C34.3876 38.5534 34.5907 38.2296 34.712 37.8726C34.8548 37.5127 34.9079 37.1233 34.8667 36.7382C34.8078 36.0914 34.5033 35.4917 34.0159 35.0625C33.5367 34.6463 32.9232 34.4174 32.2885 34.4179H25.2743C24.8185 34.4178 24.3814 34.2367 24.0592 33.9143L23.8495 33.7047C23.2053 33.0612 22.3322 32.6996 21.4217 32.6992H14.8174C14.7057 32.6992 14.594 32.7078 14.4737 32.7164C13.6842 32.7942 12.9462 33.1435 12.3854 33.7047L9.52368 36.5664L18.9768 46.0195L19.7623 45.234Z" fill="#FFBCAB"/>
<path d="M20.2656 47.3086L18.9766 46.0195L9.52344 36.5664L8.11406 35.157L3.25 40.0125L15.4016 52.1726L20.2656 47.3086Z" fill="#005ECE"/>
<path d="M18.9768 46.0195L9.52363 36.5664L8.11426 35.157L7.25488 36.0164L8.66426 37.4257L18.1174 46.8789L19.4064 48.1679L20.2658 47.3086L18.9768 46.0195Z" fill="#004FAC"/>
<path d="M16.8281 11.2148H52.9219V14.6523H16.8281V11.2148Z" fill="#58595B"/>
<path d="M50.3438 11.2148H52.9219V14.6523H50.3438V11.2148Z" fill="#414042"/>
<path d="M21.9844 21.5273H34.0156V24.9648H21.9844V21.5273Z" fill="#58595B"/>
<path d="M46.9062 24.9648C48.3301 24.9648 49.4844 23.8105 49.4844 22.3867C49.4844 20.9628 48.3301 19.8086 46.9062 19.8086C45.4824 19.8086 44.3281 20.9628 44.3281 22.3867C44.3281 23.8105 45.4824 24.9648 46.9062 24.9648Z" fill="#F7941D"/>
<path d="M42.6094 24.9648C44.0332 24.9648 45.1875 23.8105 45.1875 22.3867C45.1875 20.9628 44.0332 19.8086 42.6094 19.8086C41.1855 19.8086 40.0312 20.9628 40.0312 22.3867C40.0312 23.8105 41.1855 24.9648 42.6094 24.9648Z" fill="#F15A29"/>
<path d="M47.5518 31.27C47.043 31.0124 46.4782 30.8853 45.9081 30.9003C45.338 30.9153 44.7806 31.0719 44.2861 31.356L35.6606 36.3318C35.5214 35.592 35.1413 34.919 34.5795 34.4179C33.9447 33.864 33.1309 33.5587 32.2884 33.5586H25.275C25.162 33.5586 25.0501 33.5365 24.9457 33.4932C24.8413 33.45 24.7465 33.3867 24.6666 33.3068L24.4569 33.0971C24.0592 32.6973 23.5861 32.3803 23.0651 32.1645C22.5441 31.9487 21.9855 31.8383 21.4216 31.8398H14.8173C14.6875 31.8398 14.5595 31.8484 14.3876 31.8613C13.4005 31.9594 12.4778 32.396 11.776 33.0971L9.52356 35.3512L8.72176 34.5494C8.5606 34.3883 8.34206 34.2978 8.11418 34.2978C7.88631 34.2978 7.66776 34.3883 7.5066 34.5494L2.6434 39.4023C2.5635 39.4821 2.50011 39.5769 2.45686 39.6812C2.41362 39.7856 2.39136 39.8974 2.39136 40.0103C2.39136 40.1233 2.41362 40.2351 2.45686 40.3394C2.50011 40.4437 2.5635 40.5385 2.6434 40.6183L14.7941 52.7785C14.8739 52.8584 14.9687 52.9218 15.073 52.965C15.1773 53.0083 15.2892 53.0305 15.4021 53.0305C15.515 53.0305 15.6269 53.0083 15.7312 52.965C15.8355 52.9218 15.9303 52.8584 16.0101 52.7785L20.8742 47.9144C21.0353 47.7533 21.1258 47.5347 21.1258 47.3068C21.1258 47.079 21.0353 46.8604 20.8742 46.6993L20.1927 46.0178L20.3706 45.8399C20.532 45.6793 20.7505 45.5894 20.9782 45.5898H32.236C32.9909 45.5916 33.7327 45.3916 34.3844 45.0106L47.7219 37.3106C48.247 37.0113 48.6829 36.5777 48.985 36.0542C49.287 35.5308 49.4443 34.9363 49.4407 34.332C49.4407 33.7288 49.2824 33.1362 48.9818 32.6132C48.6489 32.0336 48.1511 31.566 47.5518 31.27ZM15.4017 50.9575L4.46613 40.0133L8.11332 36.3713L19.0506 47.3086L15.4017 50.9575ZM46.8634 35.8222L33.5182 43.5273C33.1294 43.7542 32.687 43.8729 32.2368 43.8711H20.979C20.6402 43.87 20.3045 43.9362 19.9915 44.0659C19.6784 44.1955 19.3943 44.3861 19.1554 44.6265L18.9775 44.8043L10.7387 36.5664L12.9929 34.3122C13.4101 33.8947 13.9585 33.6337 14.5457 33.5732C14.6403 33.5654 14.7288 33.5586 14.8173 33.5586H21.4216C21.7597 33.5578 22.0947 33.6239 22.4071 33.7533C22.7195 33.8827 23.0032 34.0726 23.2418 34.3122L23.4514 34.5219C23.6903 34.7623 23.9744 34.9528 24.2875 35.0825C24.6005 35.2122 24.9362 35.2784 25.275 35.2773H32.2884C32.7128 35.2768 33.1232 35.4294 33.4443 35.707C33.7669 35.9905 33.9694 36.3863 34.0106 36.8139C34.0393 37.0829 33.9997 37.3548 33.8954 37.6045C33.8167 37.8345 33.6851 38.0429 33.5113 38.2129C33.3521 38.3727 33.1628 38.4993 32.9544 38.5854C32.7459 38.6715 32.5225 38.7155 32.297 38.7148H24.9236C24.6956 38.7148 24.477 38.8053 24.3159 38.9665C24.1547 39.1277 24.0642 39.3463 24.0642 39.5742C24.0642 39.8021 24.1547 40.0207 24.3159 40.1819C24.477 40.343 24.6956 40.4336 24.9236 40.4336H32.297C32.7486 40.4343 33.1958 40.3457 33.613 40.1726C34.0301 39.9996 34.4088 39.7457 34.7273 39.4255C35.0057 39.149 35.2327 38.8251 35.3976 38.469L45.1412 32.8436C45.3908 32.7016 45.6718 32.6241 45.9588 32.6181C46.2459 32.6121 46.5299 32.6778 46.7852 32.8092C47.082 32.9542 47.3286 33.1846 47.4933 33.4709C47.643 33.7326 47.722 34.0288 47.7228 34.3303C47.7249 34.6328 47.6464 34.9305 47.4953 35.1927C47.3443 35.4549 47.1262 35.6722 46.8634 35.8222Z" fill="#231F20"/>
<path d="M49.4846 5.19919H20.2659C19.1267 5.20055 18.0346 5.6537 17.229 6.45922C16.4235 7.26475 15.9704 8.35688 15.969 9.49606V24.9648C15.9704 26.104 16.4235 27.1961 17.229 28.0017C18.0346 28.8072 19.1267 29.2603 20.2659 29.2617H49.4846C50.6238 29.2603 51.7159 28.8072 52.5215 28.0017C53.327 27.1961 53.7801 26.104 53.7815 24.9648V9.49606C53.7801 8.35688 53.327 7.26475 52.5215 6.45922C51.7159 5.6537 50.6238 5.20055 49.4846 5.19919ZM20.2659 6.91794H49.4846C50.1684 6.91794 50.8241 7.18956 51.3076 7.67305C51.7911 8.15655 52.0627 8.8123 52.0627 9.49606V10.3554H17.6877V9.49606C17.6877 8.8123 17.9594 8.15655 18.4429 7.67305C18.9264 7.18956 19.5821 6.91794 20.2659 6.91794ZM52.0627 13.7929H17.6877V12.0742H52.0627V13.7929ZM49.4846 27.5429H20.2659C19.5821 27.5429 18.9264 27.2713 18.4429 26.7878C17.9594 26.3043 17.6877 25.6486 17.6877 24.9648V15.5117H52.0627V24.9648C52.0627 25.6486 51.7911 26.3043 51.3076 26.7878C50.8241 27.2713 50.1684 27.5429 49.4846 27.5429Z" fill="#231F20"/>
<path d="M46.9063 18.9492C46.1205 18.9504 45.3589 19.2216 44.7493 19.7175C44.2449 19.3082 43.6349 19.0502 42.9899 18.9733C42.3449 18.8965 41.6914 19.004 41.105 19.2833C40.5185 19.5626 40.0233 20.0024 39.6765 20.5516C39.3298 21.1009 39.1458 21.7371 39.1458 22.3867C39.1458 23.0362 39.3298 23.6725 39.6765 24.2217C40.0233 24.771 40.5185 25.2107 41.105 25.4901C41.6914 25.7694 42.3449 25.8769 42.9899 25.8C43.6349 25.7232 44.2449 25.4652 44.7493 25.0559C45.1768 25.4028 45.6815 25.642 46.2207 25.7533C46.76 25.8645 47.318 25.8446 47.848 25.6952C48.3779 25.5458 48.8642 25.2713 49.266 24.8948C49.6677 24.5182 49.9731 24.0507 50.1565 23.5316C50.3399 23.0124 50.3959 22.4568 50.3198 21.9114C50.2437 21.3661 50.0376 20.8471 49.7191 20.398C49.4006 19.9488 48.9788 19.5828 48.4893 19.3307C47.9998 19.0786 47.4569 18.9477 46.9063 18.9492ZM42.6094 24.1054C42.2695 24.1054 41.9372 24.0046 41.6545 23.8158C41.3719 23.6269 41.1516 23.3585 41.0215 23.0444C40.8914 22.7304 40.8574 22.3848 40.9237 22.0514C40.99 21.718 41.1537 21.4117 41.3941 21.1713C41.6345 20.931 41.9407 20.7673 42.2741 20.701C42.6075 20.6346 42.9531 20.6687 43.2672 20.7988C43.5812 20.9289 43.8497 21.1492 44.0385 21.4318C44.2274 21.7144 44.3282 22.0467 44.3282 22.3867C44.3282 22.8425 44.1471 23.2797 43.8248 23.602C43.5024 23.9244 43.0653 24.1054 42.6094 24.1054ZM46.9063 24.1054C46.4955 24.1065 46.0984 23.958 45.7891 23.6878C45.9605 23.2754 46.0486 22.8332 46.0486 22.3867C46.0486 21.9401 45.9605 21.498 45.7891 21.0856C46.0984 20.8153 46.4955 20.6669 46.9063 20.6679C47.3621 20.6679 47.7993 20.849 48.1216 21.1713C48.444 21.4937 48.6251 21.9308 48.6251 22.3867C48.6251 22.8425 48.444 23.2797 48.1216 23.602C47.7993 23.9244 47.3621 24.1054 46.9063 24.1054Z" fill="#231F20"/>
<path d="M34.0156 20.6679H21.9844C21.7565 20.6679 21.5379 20.7585 21.3767 20.9196C21.2155 21.0808 21.125 21.2994 21.125 21.5273V24.9648C21.125 25.1927 21.2155 25.4113 21.3767 25.5725C21.5379 25.7336 21.7565 25.8242 21.9844 25.8242H34.0156C34.2435 25.8242 34.4621 25.7336 34.6233 25.5725C34.7845 25.4113 34.875 25.1927 34.875 24.9648V21.5273C34.875 21.2994 34.7845 21.0808 34.6233 20.9196C34.4621 20.7585 34.2435 20.6679 34.0156 20.6679ZM33.1563 24.1054H22.8438V22.3867H33.1563V24.1054Z" fill="#231F20"/>
</svg>
