<svg width="60" height="56" viewBox="0 0 60 56" fill="none" xmlns="http://www.w3.org/2000/svg">
<path opacity="0.15" d="M6.73885 44.8074C6.73885 33.1761 0.713867 25.1888 0.713867 19.5842C0.713867 13.9796 3.93571 2.20872 29.7189 2.20872C55.5021 2.20872 59.2856 18.0439 59.2856 24.2084C59.2872 53.0756 6.73885 65.4064 6.73885 44.8074Z" fill="#4A83C9"/>
<g clip-path="url(#clip0_600_396)">
<path fill-rule="evenodd" clip-rule="evenodd" d="M30.098 45.461H7.74516C6.50009 45.461 5.75766 44.769 5.71802 43.8822V48.2113C5.71802 49.0557 6.40964 49.7473 7.25098 49.7473H52.9392C53.7805 49.7473 54.4725 49.0557 54.4725 48.2113V43.9811C54.3848 44.8198 53.6508 45.461 52.4539 45.461H30.098Z" fill="#8A541E"/>
<path fill-rule="evenodd" clip-rule="evenodd" d="M7.58697 40.5022L6.15832 42.5409C5.87582 42.945 5.73495 43.3545 5.71802 43.7329V43.8826C5.75766 44.769 6.50009 45.461 7.74516 45.461H52.4539C53.6508 45.461 54.3848 44.8202 54.4725 43.9811C54.5203 43.5351 54.3848 43.0324 54.0376 42.5409L52.609 40.5022C51.9624 39.5789 51.1719 38.4578 50.0649 38.3731C50.0226 38.37 49.3564 38.3673 49.3114 38.3673C48.0182 39.4858 45.3502 39.8499 42.3574 39.8499H17.4829C14.4932 39.8499 11.8221 39.4858 10.5317 38.3673C10.4782 38.3673 10.1591 38.3704 10.1083 38.3731C9.01563 38.472 8.23087 39.5843 7.58697 40.5022Z" fill="#B5722F"/>
<path fill-rule="evenodd" clip-rule="evenodd" d="M10.323 34.5328C9.37697 36.3202 9.58327 37.5456 10.532 38.3673C11.8221 39.4858 14.4931 39.8499 17.4832 39.8499H18.2822L21.2719 37.0376L17.7172 34.2588C15.0042 32.1381 12.1977 33.4652 10.323 34.5328Z" fill="#FFDDA6"/>
<path fill-rule="evenodd" clip-rule="evenodd" d="M42.1257 34.2588L39.9092 37.0461L41.5611 39.8499H42.3574C45.3502 39.8499 48.0181 39.4858 49.3113 38.3673C50.257 37.5456 50.4659 36.3202 49.5203 34.5328C47.6425 33.4652 45.4687 33.4424 42.1257 34.2588Z" fill="#FFDDA6"/>
<path fill-rule="evenodd" clip-rule="evenodd" d="M19.7983 23.627C16.2943 23.8133 14.9704 25.7503 13.2846 28.9356L10.323 34.5328C12.1977 33.4652 14.3715 33.4425 17.7172 34.2588H42.1257C45.4687 33.4425 47.6425 33.4652 49.5199 34.5328L46.5556 28.9356C44.8698 25.7503 43.5486 23.8159 40.0446 23.627C39.2541 23.5873 38.5852 23.4888 37.9836 23.2767L21.8196 23.2883C21.2269 23.4942 20.5719 23.5873 19.7983 23.627Z" fill="#64B0D9"/>
<path fill-rule="evenodd" clip-rule="evenodd" d="M38.467 11.1116C36.1065 12.8878 36.9082 14.3476 38.3257 15.1609C39.4465 15.1778 40.6973 14.0232 40.6973 12.8905V12.0068C40.6973 11.5126 40.2936 11.1116 39.8025 11.1116H38.467Z" fill="#EDA93B"/>
<path fill-rule="evenodd" clip-rule="evenodd" d="M18.5364 12.8905C18.5364 14.0232 19.7868 15.1778 20.9049 15.1609L22.7007 12.9498L20.7667 11.1116H19.4312C18.9401 11.1116 18.5364 11.5126 18.5364 12.0068V12.8905Z" fill="#EDA93B"/>
<path fill-rule="evenodd" clip-rule="evenodd" d="M41.8378 37.108L41.561 39.8499H42.3573C45.3501 39.8499 48.0181 39.4858 49.3113 38.3673C50.1245 37.6615 50.3924 36.6589 49.8532 35.2556C49.7489 35.388 49.6303 35.5096 49.4976 35.6255C48.2044 36.7462 45.5364 37.108 42.5436 37.108H41.8378Z" fill="#FCC368"/>
<path fill-rule="evenodd" clip-rule="evenodd" d="M9.97311 35.2979C9.45352 36.6789 9.72486 37.6699 10.5323 38.3673C11.8224 39.4858 14.4935 39.8499 17.4836 39.8499H18.2826L18.0001 37.0545H17.2011C14.211 37.0545 11.5399 36.69 10.2498 35.572C10.1482 35.4842 10.0578 35.3938 9.97311 35.2979Z" fill="#FCC368"/>
<path fill-rule="evenodd" clip-rule="evenodd" d="M36.3123 25.0218C36.8545 25.1857 37.453 25.2646 38.145 25.3016C41.6486 25.4878 42.9702 27.4222 44.6583 30.6075L46.2875 33.6853C47.5214 33.7138 48.5605 33.9848 49.5204 34.5328L46.5557 28.9356C44.8704 25.7503 43.5487 23.8159 40.0448 23.627C39.2542 23.5873 38.5853 23.4888 37.9838 23.2767C37.5916 23.9545 37.0154 24.536 36.3123 25.0218Z" fill="#4A83C9"/>
<path fill-rule="evenodd" clip-rule="evenodd" d="M21.9947 23.5338C25.0187 28.1138 35.4199 27.7074 37.9836 23.2767C37.1904 22.9942 36.5099 22.5143 35.7983 21.6926C35.5473 21.4074 34.8584 20.7296 34.8188 20.6788L30.3042 17.8153L24.7504 20.9582C24.5218 21.1899 24.1997 21.5148 24.0445 21.6926C23.3218 22.5258 22.627 23.0112 21.8196 23.2883C21.8677 23.3726 21.9412 23.4518 21.9947 23.5338Z" fill="#FCC368"/>
<path fill-rule="evenodd" clip-rule="evenodd" d="M20.9052 15.1609C21.3481 17.2196 22.8107 19.4222 24.7505 20.9582C25.4509 21.5117 26.213 21.9778 27.0093 22.3222C27.1421 22.3788 27.2775 22.4323 27.4103 22.4835C29.0195 23.0793 30.228 23.0762 31.8318 22.4777C32.9044 22.0767 33.9209 21.4497 34.8188 20.6788C36.5919 19.1624 37.9105 17.0983 38.3254 15.1612C38.4185 14.7375 38.4667 14.3195 38.4667 13.9158V9.10676L30.3042 6.90411L20.7666 9.10676V13.9158C20.7666 14.3195 20.8147 14.7375 20.9052 15.1609Z" fill="#FFDDA6"/>
<path fill-rule="evenodd" clip-rule="evenodd" d="M35.9961 9.92578V14.7348C35.9961 15.1385 35.948 15.5565 35.858 15.9799C35.4427 17.917 34.1214 19.9814 32.351 21.4978C31.7186 22.0371 31.0297 22.5085 30.3042 22.8815C30.7868 22.8164 31.2868 22.6809 31.8318 22.4777C32.117 22.3734 32.3991 22.2491 32.6731 22.1136C33.4352 21.7349 34.161 21.2438 34.8188 20.6788C36.5919 19.1624 37.9105 17.0983 38.3254 15.1612C38.4185 14.7375 38.4666 14.3195 38.4666 13.9158V9.10677C37.566 9.44854 36.747 9.71679 35.9961 9.92578Z" fill="#FCC368"/>
<path fill-rule="evenodd" clip-rule="evenodd" d="M20.7666 9.10676C28.4945 7.02266 27.8676 13.1364 38.4666 9.10676C43.3653 5.54319 38.5625 -1.35571 33.3197 1.43426C30.7306 2.8125 27.4977 0.804602 24.7874 1.99618C22.1302 3.16543 20.7666 5.66174 20.7666 9.10676Z" fill="#808080"/>
<path fill-rule="evenodd" clip-rule="evenodd" d="M32.9131 1.62054C37.2075 1.25337 40.2399 6.83907 35.9963 9.92577C36.7472 9.71679 37.5662 9.44853 38.4668 9.10676C43.3655 5.54319 38.5627 -1.35571 33.3199 1.43426C33.184 1.50508 33.0486 1.56704 32.9131 1.62054Z" fill="#666666"/>
<path fill-rule="evenodd" clip-rule="evenodd" d="M34.1891 23.6862C34.7991 24.3159 35.4003 24.7058 36.0835 24.9486C36.1597 24.974 36.2332 24.9994 36.3121 25.0218C37.0152 24.536 37.5914 23.9545 37.9836 23.2767L37.9412 23.2598C37.1676 22.9773 36.4957 22.5001 35.7956 21.6953C35.5469 21.4074 34.858 20.7296 34.8188 20.6788C33.9208 21.4497 32.9044 22.0767 31.8313 22.4777C30.228 23.0762 29.0194 23.0793 27.4099 22.4831C27.2771 22.4323 27.1416 22.3788 27.0092 22.3222C26.2129 21.9778 25.4505 21.5117 24.7504 20.9582C24.5218 21.1899 24.1996 21.5148 24.0445 21.6926C23.9599 21.7915 23.8779 21.8816 23.7932 21.9693C24.0361 22.1868 24.2874 22.3957 24.5472 22.5932C25.2754 23.1466 26.0717 23.6127 26.9045 23.9572C27.0431 24.0138 27.1813 24.0676 27.3225 24.1154C28.9967 24.7142 30.2587 24.7112 31.9333 24.1127C32.4102 23.9429 32.8763 23.7313 33.325 23.483C33.4886 23.3926 33.7403 23.2232 34.1891 23.6862Z" fill="#EDA93B"/>
<path fill-rule="evenodd" clip-rule="evenodd" d="M19.4961 42.1911L18.2818 39.8499H17.4828C14.4931 39.8499 11.822 39.4858 10.5316 38.3673C10.4781 38.3673 10.159 38.3704 10.1082 38.3731C9.52934 38.4266 9.03824 38.7626 8.60603 39.2033C8.58909 39.2202 8.58063 39.2287 8.58063 39.2287C8.46516 39.353 8.35201 39.48 8.24463 39.6155C9.16795 42.0779 17.0059 42.1911 19.4961 42.1911Z" fill="#8A541E"/>
<path fill-rule="evenodd" clip-rule="evenodd" d="M40.3467 42.1911L41.561 39.8499H42.3573C45.3501 39.8499 48.018 39.4885 49.3112 38.3673H49.3478C49.4975 38.3673 50.0255 38.3704 50.0652 38.3731C50.6833 38.4181 51.2029 38.7911 51.6547 39.271L51.6489 39.2683C51.6547 39.271 51.6574 39.2737 51.6632 39.2795L51.677 39.2937C51.7109 39.3303 51.6601 39.48 51.5981 39.6155C50.6721 42.0779 42.8341 42.1911 40.3467 42.1911Z" fill="#8A541E"/>
<path fill-rule="evenodd" clip-rule="evenodd" d="M17.7172 34.2588L18.2818 39.8499L18.4092 41.1038C18.4685 41.6969 18.8976 42.188 19.4934 42.188H40.3471C40.9456 42.188 41.3748 41.6969 41.434 41.1038L41.561 39.8499L42.1257 34.2588L42.5521 30.0313C42.6114 29.4355 42.0637 28.9444 41.4648 28.9444H18.3754C17.7796 28.9444 17.2288 29.4355 17.2881 30.0313L17.7172 34.2588Z" fill="#E6E6E6"/>
<path fill-rule="evenodd" clip-rule="evenodd" d="M27.6614 35.5662C27.6614 36.6477 28.6724 37.526 29.9202 37.526C31.1684 37.526 32.1817 36.6477 32.1817 35.5662C32.1817 34.4847 31.1684 33.6091 29.9202 33.6091C28.6724 33.6091 27.6614 34.4847 27.6614 35.5662Z" fill="#FCC368"/>
<path fill-rule="evenodd" clip-rule="evenodd" d="M18.282 39.8499L18.4094 41.1038C18.4205 41.2139 18.4432 41.3239 18.4798 41.4255C18.6349 41.8662 19.0106 42.188 19.4932 42.188H40.3469C40.8326 42.188 41.2052 41.8662 41.3607 41.4255C41.3972 41.3239 41.4226 41.2139 41.4342 41.1038L41.5612 39.8499H18.282Z" fill="#C2C7CC"/>
<path d="M26.213 15.5611C25.8016 15.5611 25.4683 15.2278 25.4683 14.8164V13.9835C25.4683 13.5721 25.8016 13.2388 26.213 13.2388C26.624 13.2388 26.9577 13.5721 26.9577 13.9835V14.8164C26.9577 15.2278 26.6244 15.5611 26.213 15.5611Z" fill="black"/>
<path d="M33.1189 15.5611C32.7078 15.5611 32.3745 15.2278 32.3745 14.8164V13.9835C32.3745 13.5721 32.7078 13.2388 33.1189 13.2388C33.5303 13.2388 33.8636 13.5721 33.8636 13.9835V14.8164C33.8636 15.2278 33.5303 15.5611 33.1189 15.5611Z" fill="black"/>
<path d="M26.917 35.5662C26.917 37.0576 28.2641 38.2707 29.9202 38.2707C31.5778 38.2707 32.9264 37.0576 32.9264 35.5662C32.9264 34.0767 31.5778 32.8644 29.9202 32.8644C28.2641 32.8644 26.917 34.0767 26.917 35.5662ZM29.9202 34.3538C30.7565 34.3538 31.437 34.8977 31.437 35.5662C31.437 36.2363 30.7565 36.7813 29.9202 36.7813C29.0854 36.7813 28.4061 36.2363 28.4061 35.5662C28.4061 34.8977 29.0854 34.3538 29.9202 34.3538Z" fill="black"/>
<path d="M54.6475 42.1137L53.2189 40.075C52.6204 39.2202 51.8295 38.0914 50.6675 37.7354C51.0632 36.7493 50.9031 35.5643 50.1887 34.2045C50.1876 34.2022 50.186 34.1995 50.1849 34.1972C50.1826 34.1926 50.1807 34.1884 50.1783 34.1841L47.2136 28.5876C45.5171 25.3812 44.0126 23.0955 40.0838 22.8834C38.5081 22.8006 37.5002 22.5181 36.3571 21.2003C36.2458 21.0741 36.0669 20.8882 35.8879 20.7058C37.3277 19.3056 38.4289 17.5671 38.9234 15.839C39.483 15.7108 40.0342 15.4018 40.4968 14.9461C41.0972 14.3545 41.4417 13.6052 41.4417 12.8905V12.0068C41.4417 11.1023 40.7062 10.3668 39.8021 10.3668H39.2113V9.47086C40.2982 8.58449 40.979 7.47181 41.1857 6.23251C41.3874 5.02323 41.1203 3.75314 40.4344 2.65625C39.0697 0.474771 36.0673 -0.871524 32.9694 0.776899C31.8482 1.37384 30.5 1.20757 29.0725 1.03169C27.5588 0.845022 25.9939 0.652199 24.4871 1.31457C23.0215 1.95962 21.8923 2.97531 21.131 4.33392C20.3951 5.64673 20.0218 7.25282 20.0218 9.10677V10.3668H19.431C18.5269 10.3668 17.7914 11.1023 17.7914 12.0068V12.8905C17.7914 13.6056 18.1359 14.3553 18.7371 14.9469C19.1993 15.4026 19.7505 15.7116 20.3093 15.8394C20.8396 17.6937 22.0678 19.5592 23.6635 21.0067C23.5942 21.0799 23.5315 21.1476 23.4818 21.2046C22.851 21.9324 22.2598 22.3434 21.5902 22.5793C21.0513 22.7695 20.4613 22.8464 19.7585 22.883C15.8293 23.092 14.3241 25.3793 12.6264 28.5873L9.66478 34.1837C9.66209 34.1887 9.65978 34.1937 9.65708 34.1987C9.65631 34.2003 9.65554 34.2022 9.65439 34.2041C8.91158 35.6159 8.7684 36.839 9.22371 37.8474C8.22958 38.2904 7.52295 39.2964 6.97719 40.0746L5.54853 42.1137C5.20715 42.6006 5.01664 43.1252 4.98007 43.6351C4.97622 43.6671 4.97314 43.6994 4.97314 43.7329V48.2113C4.97314 49.4675 5.99499 50.4894 7.25084 50.4894H52.9391C54.1953 50.4894 55.2171 49.4675 55.2171 48.2113V43.9811C55.2171 43.9804 55.2168 43.9796 55.2168 43.9788C55.2587 43.3649 55.0659 42.711 54.6475 42.1137ZM19.782 13.8862C19.4683 13.5767 19.2809 13.2049 19.2809 12.8905V12.0068C19.2809 11.9252 19.3498 11.8563 19.431 11.8563H20.0218V13.9158C20.0218 13.9743 20.0253 14.0336 20.0268 14.0928C19.9421 14.0313 19.8598 13.9624 19.782 13.8862ZM42.8126 34.8627C45.6256 34.2295 47.4523 34.2946 48.9618 35.077C49.4413 36.0573 49.5156 36.834 49.1823 37.3871C48.7112 38.1695 47.1482 39.1013 42.3842 39.1051L42.8126 34.8627ZM39.8021 11.8563C39.8833 11.8563 39.9522 11.9252 39.9522 12.0068V12.8905C39.9522 13.2045 39.7651 13.5763 39.4515 13.8854C39.3737 13.9616 39.2914 14.0305 39.2063 14.0924C39.2082 14.0336 39.2113 13.9743 39.2113 13.9158V11.8563H39.8021ZM25.0868 2.6778C26.2187 2.18054 27.5165 2.34065 28.8901 2.50961C30.4843 2.70628 32.1327 2.9095 33.6691 2.09163C36.0688 0.815001 38.2033 1.89881 39.1717 3.44601C39.9995 4.76999 40.2081 6.86371 38.1063 8.4467C32.5175 10.5531 30.3522 9.73219 28.0607 8.86352C26.8225 8.39436 25.5578 7.9148 23.8097 7.9148C23.137 7.9148 22.3926 7.98601 21.5513 8.15612C21.7268 6.11859 22.5393 3.79894 25.0868 2.6778ZM21.6425 15.0623C21.6387 15.0335 21.6329 15.0054 21.6259 14.9777C21.5517 14.6178 21.5113 14.2618 21.5113 13.9158V9.68793C24.3251 9.04095 25.8192 9.60672 27.5326 10.2564C28.8035 10.7379 30.1656 11.254 32.1284 11.254C33.5898 11.254 35.3845 10.9676 37.7218 10.1675V13.9158C37.7218 14.251 37.6834 14.5959 37.6133 14.9449C37.5998 14.9896 37.5902 15.0354 37.5852 15.0831C36.979 17.7838 34.4285 20.7146 31.5711 21.78C30.1313 22.3172 29.1102 22.3188 27.6697 21.7853C24.8008 20.7189 22.2406 17.773 21.6425 15.0623ZM24.6057 22.1821C24.6592 22.121 24.7392 22.0355 24.8297 21.9416C25.5613 22.4562 26.343 22.8807 27.1516 23.1817C28.0384 23.51 28.827 23.6739 29.6152 23.6739C30.4084 23.6739 31.2009 23.5077 32.0915 23.1751C33.0283 22.826 33.9297 22.3103 34.7579 21.6803C34.9411 21.8666 35.1362 22.0675 35.2355 22.1802C35.7717 22.7983 36.3047 23.2436 36.8559 23.565C35.57 25.0056 33.0706 25.9532 30.1987 26.0367C27.0642 26.1283 24.3647 25.1988 22.9653 23.5781C23.5238 23.256 24.0634 22.8076 24.6057 22.1821ZM13.9427 29.2839C15.6454 26.0667 16.7819 24.533 19.837 24.3706C20.4351 24.3394 20.9901 24.2759 21.517 24.1489C23.0496 26.2603 26.1621 27.5323 29.7857 27.5323C29.937 27.5323 30.0894 27.53 30.2422 27.5258C33.81 27.4215 36.8274 26.1402 38.3026 24.1431C38.8361 24.274 39.3984 24.3386 40.0045 24.3706C43.0597 24.5357 44.1958 26.0682 45.8974 29.2843L47.9349 33.1307C46.574 32.8286 44.9921 32.8898 42.97 33.3051L43.2933 30.1052C43.3399 29.6357 43.1852 29.178 42.8576 28.8166C42.5028 28.4244 41.9951 28.1993 41.4651 28.1993H31.8117C31.4006 28.1993 31.0673 28.533 31.0673 28.944C31.0673 29.3555 31.4006 29.6888 31.8117 29.6888H41.4651C41.5702 29.6888 41.6838 29.7388 41.7538 29.8162C41.7965 29.8631 41.8158 29.9108 41.8111 29.9566L40.6931 41.0295C40.6731 41.2289 40.5561 41.4433 40.3471 41.4433H19.4934C19.2717 41.4433 19.1666 41.1958 19.15 41.0287L18.4607 34.2218C18.4596 34.1941 18.4569 34.166 18.4526 34.1387L18.0293 29.9578C18.0247 29.9116 18.0439 29.8643 18.087 29.8169C18.1574 29.7392 18.2706 29.6888 18.3753 29.6888H28.3617C28.7727 29.6888 29.1064 29.3555 29.1064 28.944C29.1064 28.533 28.7727 28.1993 28.3617 28.1993H18.3753C17.8457 28.1993 17.338 28.4248 16.9828 28.8174C16.6553 29.1792 16.5006 29.6364 16.5471 30.1064L16.8712 33.3047C14.8487 32.8898 13.2672 32.8286 11.9071 33.1303L13.9427 29.2839ZM17.4581 39.1051C13.5928 39.1024 11.8343 38.489 11.0569 37.8397C11.0369 37.8197 11.0153 37.8012 10.993 37.7835C10.8456 37.6507 10.737 37.5171 10.6589 37.3874C10.326 36.8344 10.401 36.0577 10.881 35.077C12.3878 34.2946 14.214 34.2295 17.0286 34.8623L17.4581 39.1051ZM31.5069 46.2057H52.4537C52.9233 46.2057 53.3528 46.1241 53.7277 45.9721V48.2113C53.7277 48.6462 53.374 48.9999 52.9391 48.9999H7.25084C6.81593 48.9999 6.46261 48.6462 6.46261 48.2113V45.969C6.83941 46.123 7.27201 46.2057 7.7454 46.2057L28.0684 46.1942C28.4794 46.1942 28.8127 45.8605 28.8123 45.449C28.8123 45.038 28.479 44.7047 28.068 44.7047C28.0676 44.7047 28.0676 44.7047 28.0676 44.7047L7.74502 44.7162C7.16078 44.7162 6.72433 44.5215 6.54767 44.1816C6.49802 44.0858 6.47031 43.9804 6.46261 43.8684V43.7433C6.47801 43.502 6.58116 43.2356 6.76821 42.9685L8.19686 40.9298C8.73838 40.1574 9.41192 39.1975 10.1582 39.1163C10.1821 39.1159 10.2259 39.1151 10.2748 39.1144C11.6207 40.1085 13.9996 40.5946 17.4831 40.5946H17.609L17.6683 41.1777C17.7699 42.1945 18.5373 42.9327 19.4934 42.9327H40.3471C41.3043 42.9327 42.0732 42.1945 42.1749 41.1785L42.2337 40.5946H42.3573C45.8423 40.5946 48.2216 40.1081 49.5675 39.1132C49.7457 39.1144 49.9597 39.1155 50.0229 39.1167C50.7784 39.1863 51.455 40.1524 51.9992 40.9295L53.4278 42.9685C53.7388 43.4123 53.8197 43.8549 53.6492 44.1828C53.4725 44.5219 53.0368 44.7162 52.4537 44.7162H31.5069C31.0954 44.7162 30.7621 45.0495 30.7621 45.461C30.7621 45.8724 31.0954 46.2057 31.5069 46.2057Z" fill="black"/>
</g>
<defs>
<clipPath id="clip0_600_396">
<rect width="50.4464" height="50.4464" fill="white" transform="translate(4.77612 0.0429382)"/>
</clipPath>
</defs>
</svg>
