<svg width="62" height="56" viewBox="0 0 62 56" fill="none" xmlns="http://www.w3.org/2000/svg">
<path opacity="0.15" d="M6.7854 44.3878C6.7854 32.2798 0.513428 23.965 0.513428 18.1306C0.513428 12.2963 3.86735 0.0429382 30.7074 0.0429382C57.5476 0.0429382 61.4861 16.5272 61.4861 22.9445C61.4879 52.9949 6.7854 65.8312 6.7854 44.3878Z" fill="#5C95E6"/>
<g clip-path="url(#clip0_600_395)">
<path d="M49.8011 20.6321L26.0355 44.3973C24.9618 45.4714 23.2205 45.4714 22.1464 44.3973L8.16157 30.4125C7.08742 29.3383 7.08742 27.5971 8.16157 26.5233L31.9267 2.75775C33.0009 1.684 34.7421 1.684 35.8159 2.75775L49.8011 16.743C50.8749 17.8167 50.8749 19.558 49.8011 20.6321Z" fill="#8CBAFA"/>
<path d="M49.8011 16.743L48.0554 14.9973C49.0118 15.9537 48.9164 17.5996 47.8427 18.6737L24.0771 42.4389C23.0034 43.513 21.3575 43.6084 20.4011 42.652L22.1464 44.3973C23.2205 45.4714 24.9618 45.4714 26.0355 44.3973L49.8011 20.6321C50.8748 19.558 50.8748 17.8167 49.8011 16.743Z" fill="#5692D8"/>
<path d="M31.5385 8.17458L29.2099 10.5032C28.294 11.4187 28.294 12.9027 29.2099 13.8182C30.1254 14.7337 31.6094 14.7337 32.5249 13.8182L34.8535 11.4896C35.769 10.5741 35.769 9.09007 34.8535 8.17458C33.938 7.25909 32.454 7.25909 31.5385 8.17458Z" fill="#FFCD34"/>
<path d="M52.0454 27.6508H18.4361C16.9172 27.6508 15.686 28.882 15.686 30.4005V50.1783C15.686 51.6972 16.9172 52.9284 18.4361 52.9284H52.0454C53.5638 52.9284 54.795 51.6972 54.795 50.1783V30.4005C54.795 28.882 53.5638 27.6508 52.0454 27.6508Z" fill="#FFCD34"/>
<path d="M52.0451 27.6508H49.5835C51.102 27.6508 52.3332 28.882 52.3332 30.4005V50.1783C52.3332 51.6972 51.102 52.9284 49.5835 52.9284H52.0451C53.5636 52.9284 54.7948 51.6972 54.7948 50.1783V30.4005C54.7948 28.882 53.5636 27.6508 52.0451 27.6508Z" fill="#E69012"/>
<path d="M15.686 33.8637H54.795V38.6151H15.686V33.8637Z" fill="#575B7A"/>
<path d="M52.3333 33.8637H54.7949V38.6151H52.3333V33.8637Z" fill="#252D4C"/>
<path d="M45.1826 46.2071V49.1375C45.1826 49.3642 45.3661 49.5477 45.5929 49.5477H50.2541C50.4809 49.5477 50.6644 49.3642 50.6644 49.1375V46.2071C50.6644 45.9803 50.4809 45.7968 50.2541 45.7968H45.5929C45.3661 45.7968 45.1826 45.9803 45.1826 46.2071Z" fill="#E9E9EA"/>
<path d="M31.1289 46.2071V49.1375C31.1289 49.3642 31.3128 49.5477 31.5392 49.5477H41.3981C41.6248 49.5477 41.8083 49.3642 41.8083 49.1375V46.2071C41.8083 45.9803 41.6248 45.7968 41.3981 45.7968H31.5392C31.3128 45.7968 31.1289 45.9803 31.1289 46.2071Z" fill="#E9E9EA"/>
<path d="M8.70568 29.8688C7.93322 29.0963 7.93322 27.8395 8.70568 27.0674L27.556 8.21706C27.8565 7.91657 27.8565 7.42937 27.556 7.12928C27.2555 6.82839 26.7683 6.82879 26.4683 7.12928L7.6175 25.9796C6.24566 27.3515 6.24566 29.5843 7.6175 30.9566L12.3656 35.7043C12.5155 35.8541 12.7126 35.9295 12.9093 35.9295C13.1065 35.9295 13.3032 35.8545 13.4534 35.7043C13.7539 35.4038 13.7539 34.9166 13.4534 34.6165L8.70568 29.8688Z" fill="black"/>
<path d="M23.8281 16.503L12.1875 28.1435C11.887 28.444 11.887 28.9312 12.1875 29.2317C12.3378 29.3816 12.5345 29.4569 12.7316 29.4569C12.9283 29.4569 13.1251 29.382 13.2753 29.2317L24.9159 17.5911C25.2164 17.2907 25.2164 16.8035 24.9159 16.503C24.6158 16.2029 24.1286 16.2029 23.8281 16.503Z" fill="black"/>
<path d="M30.8674 15.273C31.6647 15.273 32.462 14.9697 33.069 14.3627L35.3976 12.0341C36.6115 10.8201 36.6115 8.8449 35.3976 7.63091C34.1836 6.41693 32.2084 6.41693 30.9944 7.63091L28.6658 9.95952C28.0776 10.5477 27.7539 11.3294 27.7539 12.1611C27.7539 12.9925 28.0776 13.7745 28.6658 14.3627C29.2728 14.9697 30.0701 15.273 30.8674 15.273ZM29.7536 11.0473L32.0822 8.71869C32.6964 8.10449 33.6956 8.10449 34.3094 8.71869C34.9236 9.33289 34.9236 10.3321 34.3094 10.9459L31.9808 13.2745C31.367 13.8887 30.3678 13.8887 29.7536 13.2745C29.4563 12.9772 29.2924 12.5818 29.2924 12.1611C29.2924 11.7404 29.4563 11.3446 29.7536 11.0473Z" fill="black"/>
<path d="M52.0449 26.8815H44.64L50.3454 21.1762C51.7176 19.804 51.7176 17.5711 50.3454 16.1989L36.3601 2.21406C35.6955 1.54938 34.8116 1.18318 33.8717 1.18318C32.9317 1.18318 32.0479 1.54938 31.3828 2.21406L28.6423 4.95454C28.3423 5.25503 28.3423 5.74182 28.6423 6.04231C28.9428 6.3428 29.43 6.3428 29.7301 6.04231L32.471 3.30184C32.8448 2.92763 33.3424 2.72169 33.8717 2.72169C34.4005 2.72169 34.8981 2.92763 35.2724 3.30184L49.2572 17.2867C50.0296 18.0591 50.0296 19.3156 49.2572 20.088L42.4641 26.8811H23.024L28.6155 21.2896C28.916 20.9895 28.916 20.5023 28.6155 20.2018C28.315 19.9013 27.8278 19.9013 27.5277 20.2018L20.8484 26.8815H18.4361C16.4953 26.8815 14.9167 28.4601 14.9167 30.4005V50.1783C14.9167 52.1187 16.4953 53.6977 18.4361 53.6977H52.0449C53.9857 53.6977 55.5643 52.1187 55.5643 50.1783V47.3353C55.5643 46.9102 55.2201 46.566 54.795 46.566C54.3703 46.566 54.0258 46.9102 54.0258 47.3353V50.1783C54.0258 51.2705 53.1375 52.1592 52.0449 52.1592H18.4361C17.3439 52.1592 16.4553 51.2705 16.4553 50.1783V39.3843H54.0258V44.2583C54.0258 44.683 54.3699 45.0275 54.795 45.0275C55.2201 45.0275 55.5643 44.683 55.5643 44.2583V30.4009C55.5643 28.4601 53.9857 26.8815 52.0449 26.8815ZM18.4361 28.42H52.0449C53.1371 28.42 54.0258 29.3087 54.0258 30.4009V33.0949H16.4553V30.4009C16.4553 29.3087 17.3439 28.42 18.4361 28.42ZM16.4553 37.8458V34.6334H54.0258V37.8458H16.4553Z" fill="black"/>
<path d="M45.5929 45.0275C44.9426 45.0275 44.4133 45.5568 44.4133 46.2071V49.1375C44.4133 49.7881 44.9426 50.317 45.5929 50.317H50.2541C50.9043 50.317 51.4336 49.7881 51.4336 49.1375V46.2071C51.4336 45.5568 50.9043 45.0275 50.2541 45.0275H45.5929ZM49.8951 48.7785H45.9518V46.566H49.8951V48.7785Z" fill="black"/>
<path d="M31.5394 45.0275C30.8891 45.0275 30.3599 45.5568 30.3599 46.2071V49.1375C30.3599 49.7881 30.8891 50.317 31.5394 50.317H41.3983C42.0485 50.317 42.5778 49.7881 42.5778 49.1375V46.2071C42.5778 45.5568 42.0485 45.0275 41.3983 45.0275H31.5394ZM41.0393 48.7785H31.8984V46.566H41.0393V48.7785Z" fill="black"/>
<path d="M22.1985 48.7784C21.7738 48.7784 21.4292 49.123 21.4292 49.5477C21.4292 49.9728 21.7738 50.3169 22.1985 50.3169H27.1105C27.5352 50.3169 27.8797 49.9728 27.8797 49.5477C27.8797 49.123 27.5352 48.7784 27.1105 48.7784H22.1985Z" fill="black"/>
</g>
<defs>
<clipPath id="clip0_600_395">
<rect width="52.5144" height="52.5144" fill="white" transform="translate(4.74243 1.28575)"/>
</clipPath>
</defs>
</svg>
