<svg width="60" height="56" viewBox="0 0 60 56" fill="none" xmlns="http://www.w3.org/2000/svg">
<path opacity="0.15" d="M6.94481 44.3886C6.94481 32.2808 0.973145 23.9662 0.973145 18.132C0.973145 12.2978 4.16648 0.0429993 29.7215 0.0429993C55.2765 0.0429993 59.0265 16.5269 59.0265 22.944C59.0281 52.9938 6.94481 65.8315 6.94481 44.3886Z" fill="#4EAD4E"/>
<g clip-path="url(#clip0_600_399)">
<path d="M54.1133 19.6879L31.8039 43.1187C31.5878 43.3457 31.2374 43.3457 31.0213 43.1187L18.5312 30.001C18.3151 29.774 18.3151 29.406 18.5312 29.1791L40.8407 5.74822C41.0568 5.52124 41.4072 5.52124 41.6233 5.74822L54.1133 18.866C54.3294 19.0929 54.3294 19.4609 54.1133 19.6879Z" fill="#5CC45C"/>
<path d="M54.1134 18.866L50.749 15.3324L27.657 39.5852L31.0214 43.1188C31.2375 43.3457 31.5879 43.3457 31.8041 43.1188L54.1135 19.6879C54.3295 19.461 54.3295 19.093 54.1134 18.866Z" fill="#4EAD4E"/>
<path d="M23.3255 31.1114C23.8122 30.1655 23.8122 29.0147 23.3255 28.0687C23.2602 27.9417 23.279 27.7854 23.3762 27.6834L39.4167 10.8367C39.5139 10.7346 39.6627 10.7148 39.7836 10.7835C40.684 11.2947 41.7799 11.2946 42.6807 10.7833C42.8016 10.7147 42.9504 10.7345 43.0476 10.8366L49.2685 17.3703C49.3657 17.4723 49.3846 17.6286 49.3192 17.7556C48.8323 18.7016 48.8324 19.8523 49.3192 20.7983C49.3846 20.9253 49.3657 21.0816 49.2685 21.1836L33.2279 38.0305C33.1308 38.1326 32.9819 38.1524 32.861 38.0838C31.9603 37.5725 30.8645 37.5726 29.9641 38.0838C29.8432 38.1524 29.6943 38.1326 29.5972 38.0305L23.3762 31.4968C23.279 31.3946 23.2602 31.2383 23.3255 31.1114Z" fill="#A0E557"/>
<path d="M49.3191 20.7982C48.8323 19.8523 48.8322 18.7015 49.3191 17.7555C49.3845 17.6285 49.3656 17.4722 49.2684 17.3702L45.6864 13.6081C45.0429 14.6576 45.043 16.0187 45.6864 17.0682L29.3096 34.2684C28.3102 33.5927 27.0143 33.5927 26.0151 34.2684L29.5972 38.0304C29.6943 38.1325 29.8432 38.1523 29.9641 38.0837C30.8645 37.5725 31.9603 37.5725 32.861 38.0838C32.9819 38.1524 33.1308 38.1326 33.2279 38.0305L49.2684 21.1837C49.3656 21.0815 49.3845 20.9253 49.3191 20.7982Z" fill="#93CC4A"/>
<path d="M39.5385 27.8125C41.3152 25.9464 41.3153 22.9209 39.5385 21.0547C37.7617 19.1886 34.8809 19.1886 33.1041 21.0547C31.3273 22.9208 31.3273 25.9464 33.1041 27.8125C34.8809 29.6786 37.7617 29.6786 39.5385 27.8125Z" fill="#F3E8D7"/>
<path d="M30.927 35.7806L37.7915 28.5711C38.5825 27.7402 38.9189 26.7465 38.1278 25.9157C36.8811 24.2896 32.3298 25.5936 30.1709 27.861C29.1241 28.9604 27.9354 30.209 27.2803 30.8975C26.9597 31.2344 26.5251 31.4236 26.0661 31.4236H26.0425C25.2851 31.4236 24.398 30.6533 24.2027 29.8848L24.2023 23.223L25.3351 22.0334L26.5796 20.7263L31.5224 15.5351C29.4889 15.2958 27.4668 15.1662 26.6824 15.0676C25.8104 14.9578 25.0665 15.3682 24.3898 15.9562L18.0622 21.1993C17.1692 21.9752 16.5255 23.0208 16.2171 24.1942C15.5263 26.8222 14.0712 31.471 13.1477 33.3196L8.53418 38.165L16.5214 46.5537L18.7428 44.2206C19.1603 43.7822 19.6766 43.4616 20.2437 43.2889L24.883 41.6482C26.3404 41.1231 27.6234 40.1689 28.5791 38.8996L30.927 35.7806Z" fill="#FCD7C3"/>
<path d="M28.5788 38.8997L30.927 35.7806L37.7915 28.5711C38.5826 27.7403 38.9189 26.7465 38.1278 25.9157C37.6695 25.3179 36.7646 25.1162 35.6963 25.2127C34.1314 25.354 32.6732 26.1053 31.5626 27.2718L27.194 31.8599L24.8458 34.979C23.8901 36.2485 22.6071 37.2025 21.1497 37.7276L16.5104 39.3684C15.9433 39.5411 15.427 39.8616 15.0095 40.3001L12.7881 42.6331L16.5211 46.5538L18.7425 44.2207C19.16 43.7823 19.6763 43.4617 20.2434 43.289L24.8827 41.6483C26.3401 41.1232 27.6231 40.169 28.5788 38.8997Z" fill="#FFCDAC"/>
<path d="M15.2256 49.2381L5.98105 39.5289C5.63848 39.1691 5.63848 38.5857 5.98105 38.2259L7.60781 36.5174C7.95039 36.1576 8.50586 36.1576 8.84844 36.5174L18.093 46.2266C18.4355 46.5864 18.4355 47.1698 18.093 47.5296L16.4662 49.2381C16.1236 49.5979 15.5682 49.5979 15.2256 49.2381Z" fill="#464C50"/>
<path d="M18.093 46.2265L14.9576 42.9334L12.0901 45.945L15.2255 49.2381C15.5681 49.5979 16.1236 49.5979 16.4662 49.2381L18.0929 47.5296C18.4356 47.1697 18.4356 46.5863 18.093 46.2265Z" fill="#33393A"/>
<path d="M37.5203 28.3467C36.6092 27.3898 35.1322 27.3898 34.2211 28.3467L33.1847 29.4352C32.7158 29.9277 32.7158 30.7264 33.1847 31.2189L34.2276 32.3142L37.7627 28.6013L37.5203 28.3467Z" fill="#EFEFEF"/>
<path d="M54.6255 18.328L42.1356 5.21029C41.8943 4.95685 41.5733 4.81726 41.2321 4.81726C40.8907 4.81726 40.5699 4.95695 40.3286 5.21029L33.4598 12.4242C33.177 12.7213 33.177 13.2029 33.4598 13.5001C33.7426 13.7969 34.2011 13.7971 34.4842 13.5001L41.2321 6.41307L53.4803 19.277L31.4125 42.454L28.8413 39.7535C28.9458 39.629 29.0484 39.5023 29.1469 39.3716L29.5417 38.8471C29.7918 38.919 30.0652 38.8909 30.3085 38.7529C30.9895 38.3663 31.8357 38.3663 32.5167 38.7529C32.6745 38.8425 32.8451 38.8862 33.0136 38.8862C33.2798 38.8862 33.5413 38.7773 33.74 38.5684L35.4203 36.8037C35.7032 36.5067 35.7032 36.0251 35.4204 35.7279C35.1375 35.4309 34.679 35.4308 34.396 35.7278L32.9264 37.2712C32.3004 36.9822 31.6209 36.8816 30.9573 36.9668L31.469 36.2872L34.7391 32.8528C34.7393 32.8526 34.7395 32.8525 34.7396 32.8523L37.6531 29.7924C38.5601 29.5449 39.3857 29.0497 40.0517 28.3504C42.1079 26.1907 42.1079 22.6765 40.0516 20.5168C37.9954 18.3572 34.6494 18.3573 32.5929 20.5169C31.2214 21.9574 30.7273 24.0973 31.2716 26.0223C30.6637 26.4085 30.1112 26.8481 29.6587 27.3233L26.768 30.36C26.5821 30.5554 26.3328 30.6631 26.0662 30.6631H26.0425C25.6494 30.6631 25.087 30.2016 24.927 29.7673L24.9268 27.1309L39.7181 11.596C40.6849 12.0425 41.7794 12.0424 42.7461 11.596L48.5457 17.687C48.1207 18.7024 48.1207 19.8518 48.5457 20.8672L36.8183 33.1837C36.5355 33.4809 36.5355 33.9624 36.8183 34.2596C36.9598 34.4081 37.1452 34.4824 37.3305 34.4824C37.5159 34.4824 37.7012 34.4081 37.8427 34.2596L49.7809 21.7213C50.1056 21.3798 50.1761 20.8636 49.9563 20.4366C49.5882 19.7214 49.5882 18.8326 49.9561 18.1179C50.1765 17.6904 50.1059 17.1737 49.7807 16.8324L43.5597 10.2987C43.2346 9.9575 42.7432 9.88335 42.3363 10.1142C41.6551 10.5008 40.809 10.5011 40.1281 10.1143C39.7215 9.88355 39.2299 9.9575 38.9045 10.2987L24.9266 24.9791L24.9265 23.5382L32.0343 16.0731C32.231 15.8665 32.2977 15.5596 32.2057 15.2837C32.1137 15.0078 31.8794 14.8117 31.6028 14.7793C30.394 14.637 29.205 14.5346 28.2497 14.4523C27.5946 14.3959 27.0771 14.3513 26.7683 14.3123C25.8169 14.1929 24.8896 14.5368 23.9345 15.3644L17.6132 20.6022C17.6088 20.6058 17.6044 20.6095 17.6001 20.6133C16.5883 21.4927 15.8685 22.6608 15.5186 23.9918C14.8632 26.4847 13.4473 31.0185 12.5553 32.8656L9.47563 36.1002L9.3606 35.9793C9.05806 35.6617 8.65581 35.4867 8.22808 35.4867C7.80034 35.4867 7.3981 35.6617 7.09565 35.9793L5.4688 37.688C5.16636 38.0057 4.99976 38.4281 4.99976 38.8773C4.99976 39.3265 5.16636 39.749 5.4688 40.0667L14.7133 49.7759C15.0159 50.0936 15.4181 50.2686 15.8458 50.2686C16.2736 50.2686 16.6757 50.0936 16.9783 49.7759L18.605 48.0673C18.9076 47.7497 19.0742 47.3272 19.0742 46.878C19.0742 46.4287 18.9076 46.0063 18.6051 45.6885L18.4872 45.5646L19.2546 44.7587C19.5849 44.4118 19.9964 44.1562 20.445 44.0196C20.4548 44.0166 20.4647 44.0133 20.4744 44.0098L25.1176 42.3677C26.0979 42.0145 27.0023 41.4854 27.7966 40.8079L30.509 43.6566C30.7503 43.9101 31.0713 44.0496 31.4125 44.0496C31.754 44.0496 32.0748 43.91 32.3161 43.6566L54.6255 20.226C54.8668 19.9725 54.9998 19.6354 54.9998 19.277C54.9998 18.9186 54.8668 18.5816 54.6255 18.328ZM34.2274 31.2385L33.6967 30.6809C33.5109 30.4859 33.5109 30.1682 33.6967 29.973L34.7332 28.8845C35.0467 28.5552 35.4585 28.3905 35.8705 28.3905C36.1603 28.3905 36.4503 28.4721 36.706 28.6352L34.2274 31.2385ZM33.6172 21.5925C35.1088 20.0258 37.5358 20.026 39.0274 21.5924C40.4204 23.0554 40.5121 25.3748 39.3033 26.9512C39.3013 26.3856 39.0858 25.8583 38.6665 25.4059C38.2043 24.8265 37.4505 24.4917 36.4837 24.4371C35.3125 24.3704 33.9018 24.7092 32.5906 25.3081C32.314 23.9871 32.688 22.5685 33.6172 21.5925ZM17.5808 46.9915L15.954 48.7001C15.9169 48.7391 15.8748 48.7473 15.8458 48.7473C15.8169 48.7473 15.7747 48.7391 15.7376 48.7001L6.49312 38.9909C6.45601 38.9521 6.44819 38.9078 6.44819 38.8773C6.44819 38.8469 6.45601 38.8026 6.49312 38.7638L8.11997 37.055C8.15698 37.0162 8.19917 37.0079 8.22808 37.0079C8.25698 37.0079 8.29927 37.0162 8.33628 37.0551L17.5808 46.7643C17.6179 46.8032 17.6257 46.8475 17.6257 46.878C17.6257 46.9083 17.6179 46.9527 17.5808 46.9915ZM28.8308 37.3386L28.0107 38.428C27.7986 38.7097 27.5689 38.9738 27.324 39.2196C27.3213 39.2222 27.3184 39.2246 27.3158 39.2274C27.3139 39.2293 27.3124 39.2315 27.3105 39.2334C26.5525 39.9901 25.6479 40.5684 24.6514 40.9275L20.0259 42.5633C19.3496 42.7723 18.729 43.1593 18.2303 43.6829L17.4628 44.4889L10.5 37.1761L13.6594 33.8576C13.7111 33.8033 13.7546 33.7412 13.7886 33.6732C14.7358 31.7773 16.2128 27.0677 16.9148 24.3968C17.1845 23.3707 17.7386 22.4699 18.5172 21.791L24.838 16.5538C24.8423 16.5501 24.8468 16.5465 24.851 16.5427C25.5041 15.9754 26.0424 15.7534 26.5958 15.8231C26.9316 15.8653 27.4609 15.911 28.1311 15.9687C28.6697 16.0152 29.2833 16.068 29.931 16.1307L23.69 22.6855C23.5541 22.8282 23.4779 23.0217 23.4779 23.2233C23.4779 23.224 23.4779 23.2227 23.4779 23.2233L23.4783 29.8851C23.4783 29.9514 23.4865 30.0173 23.5028 30.0813C23.7876 31.2018 24.9744 32.1845 26.0424 32.1845H26.0661C26.7197 32.1845 27.3329 31.9185 27.7924 31.4355L30.683 28.3992C31.1567 27.9016 31.7711 27.4453 32.4458 27.065C32.4484 27.0638 32.4511 27.063 32.4539 27.0617C32.4846 27.0475 32.5134 27.0305 32.5413 27.0125C33.8075 26.3176 35.2688 25.8909 36.4058 25.9565C36.9606 25.9878 37.3718 26.1428 37.5636 26.393C37.5799 26.4142 37.5973 26.4345 37.6156 26.4538C37.8719 26.723 37.871 26.94 37.8418 27.099C37.8192 27.2217 37.7653 27.3562 37.6865 27.4962C36.4907 26.5678 34.7916 26.6719 33.7088 27.8088L32.6724 28.8973C32.3088 29.2793 32.1085 29.7871 32.1085 30.3271C32.1085 30.8672 32.3088 31.375 32.6724 31.7568L33.2032 32.3143L30.4149 35.2427C30.3951 35.2636 30.3764 35.2857 30.3589 35.3089L28.8329 37.336C28.8322 37.3369 28.8315 37.3377 28.8308 37.3386Z" fill="black"/>
</g>
<defs>
<clipPath id="clip0_600_399">
<rect width="50" height="52.5132" fill="white" transform="translate(4.99976 1.28636)"/>
</clipPath>
</defs>
</svg>
