<svg width="51" height="50" viewBox="0 0 51 50" fill="none" xmlns="http://www.w3.org/2000/svg">
<g clip-path="url(#clip0_600_168)">
<path d="M30.5362 40.2908L19.5087 29.2633C18.8175 28.5721 18.8167 27.454 19.5064 26.7643C19.7791 26.4916 20.1198 26.3264 20.4742 26.2707C21.014 26.1833 21.5881 26.3485 22.0058 26.7662L19.1661 23.9269C18.8209 23.5813 18.6473 23.1293 18.6477 22.6776C18.6477 22.5838 18.6553 22.4892 18.6702 22.395C18.7271 22.0402 18.8915 21.7003 19.1642 21.4275C19.4343 21.1575 19.7688 20.9938 20.1183 20.9358C20.5943 20.8565 21.0956 20.9724 21.4954 21.2841L20.4147 20.2034C20.0694 19.8582 19.8959 19.4042 19.8959 18.9526C19.8955 18.8568 19.9035 18.7599 19.9195 18.6653C19.976 18.3132 20.1404 17.9749 20.412 17.7033C20.6848 17.4305 21.025 17.2657 21.3809 17.2096C21.9207 17.1227 22.4948 17.2878 22.9125 17.7055L24.15 18.943C23.7327 18.5257 23.5671 17.9512 23.6541 17.4114C23.7102 17.057 23.8742 16.7172 24.1477 16.4436C24.8371 15.7547 25.9563 15.7551 26.6471 16.4459L33.8134 23.6126L33.8336 23.584C34.1968 23.2208 34.6248 22.9626 35.0814 22.8085C36.2087 22.4289 37.5053 22.6883 38.4044 23.5874L41.7461 26.9291C42.3885 27.5715 42.7486 28.4416 42.7501 29.3488L42.752 31.4392C42.7528 32.4162 43.1415 33.3534 43.8335 34.0454L44.5789 34.7904L36.0557 43.3132L35.1035 42.3611C34.4703 41.7278 33.628 41.3464 32.735 41.288C31.9053 41.2335 31.1244 40.8794 30.5362 40.2908Z" fill="#FECBAA"/>
<path d="M35.5016 43.8667L45.1753 34.193C45.4942 33.8741 46.0111 33.8741 46.3297 34.193L49.7751 37.638C50.0936 37.9569 50.0936 38.4735 49.7751 38.7924L40.101 48.4664C39.7821 48.785 39.2656 48.785 38.9467 48.4664L35.5016 45.021C35.1827 44.7025 35.1827 44.1856 35.5016 43.8667Z" fill="#FDD559"/>
<path d="M20.9582 40.2919L31.9857 29.2644C32.6769 28.5732 32.6773 27.4551 31.9876 26.7654C31.7149 26.4923 31.3742 26.3275 31.0202 26.2714C30.4801 26.1844 29.9063 26.3496 29.4882 26.7673L32.3279 23.9277C32.6731 23.5824 32.8467 23.13 32.8463 22.6783C32.8463 22.5845 32.8391 22.4899 32.8238 22.3961C32.767 22.0413 32.6026 21.7014 32.3298 21.4286C32.0601 21.1586 31.7252 20.9949 31.3757 20.9369C30.8997 20.8576 30.3984 20.9736 29.9986 21.2848L31.0793 20.2041C31.4246 19.8589 31.5981 19.4053 31.5981 18.9537C31.5985 18.8575 31.5905 18.761 31.5745 18.6664C31.518 18.3143 31.3536 17.9756 31.082 17.7044C30.8093 17.4316 30.469 17.2664 30.1135 17.2107C29.5733 17.1238 28.9996 17.2886 28.5815 17.7063L27.344 18.9438C27.7613 18.5268 27.9269 17.9523 27.8399 17.4122C27.7842 17.0581 27.6198 16.7183 27.3463 16.4447C26.657 15.7554 25.5377 15.7562 24.8473 16.4467L17.6806 23.6133L17.6604 23.5851C17.2972 23.2219 16.8692 22.9637 16.4126 22.8096C15.2857 22.4296 13.9887 22.6894 13.0896 23.5885L9.74832 26.9302C9.10593 27.5726 8.74544 28.4427 8.74429 29.3499L8.742 31.4403C8.74162 32.4176 8.35291 33.3545 7.66092 34.0465L6.91553 34.7915L15.4383 43.3143L16.3909 42.3622C17.0241 41.7289 17.8664 41.3475 18.7594 41.2891C19.5887 41.2346 20.3696 40.8802 20.9582 40.2919Z" fill="#FECBAA"/>
<path d="M15.9927 43.8678L6.31864 34.1938C5.99973 33.8749 5.48284 33.8749 5.16431 34.1938L1.71888 37.6392C1.40035 37.9577 1.40035 38.4746 1.71888 38.7935L11.3929 48.4672C11.7119 48.7861 12.2284 48.7861 12.5473 48.4672L15.9927 45.0222C16.3112 44.7033 16.3112 44.1864 15.9927 43.8678Z" fill="#FF84A7"/>
<path d="M32.8003 13.8634V29.4586C32.8003 30.4363 32.0103 31.2271 31.0345 31.2271C30.6488 31.2271 30.2914 31.1031 30.0011 30.8922C29.5578 30.5717 29.2687 30.0495 29.2687 29.4586V33.4743C29.2687 33.9626 29.0715 34.4051 28.7522 34.7244C28.6858 34.7908 28.6137 34.8522 28.5363 34.9079C28.2452 35.1189 27.8889 35.2428 27.5033 35.2428C27.1214 35.2428 26.7689 35.1219 26.4805 34.9159C26.088 34.6355 25.8156 34.1991 25.7531 33.696V35.2245C25.7531 35.7128 25.5547 36.1561 25.2354 36.4754C25.1683 36.5437 25.0939 36.6062 25.0157 36.6619C24.7265 36.871 24.3714 36.9942 23.9872 36.9942C23.6016 36.9942 23.2441 36.8698 22.9531 36.6581C22.5098 36.3377 22.2207 35.8154 22.2207 35.2245V33.4743C22.2207 34.0641 21.9315 34.5879 21.4882 34.9079C21.1983 35.1189 20.8416 35.2428 20.4552 35.2428C19.4806 35.2428 18.6894 34.4509 18.6894 33.4743V23.3391L18.6551 23.3452C18.1416 23.3452 17.656 23.225 17.2245 23.011C16.1591 22.4827 15.4255 21.3821 15.4255 20.1107V15.3851C15.4255 14.4768 15.786 13.6066 16.4265 12.9639L17.9032 11.4845C18.5936 10.7929 18.9812 9.85527 18.9812 8.8768V7.82318H31.0345V9.16977C31.0345 10.0655 31.3607 10.9306 31.9504 11.6035C32.4986 12.2284 32.8003 13.0314 32.8003 13.8634Z" fill="#FEDFC5"/>
<path d="M31.9877 26.7654C31.7149 26.4923 31.3743 26.3275 31.0203 26.2714C30.4801 26.1844 29.9064 26.3496 29.4887 26.7673L32.3283 23.9277C32.6736 23.5824 32.8467 23.13 32.8467 22.6783C32.8467 22.5845 32.8391 22.4899 32.8239 22.3961C32.7674 22.0409 32.603 21.7014 32.3302 21.4286C32.0602 21.1586 31.7252 20.9949 31.3758 20.9369C30.9001 20.8576 30.3988 20.9736 29.9991 21.2848L31.0798 20.2041C31.425 19.8589 31.5982 19.4053 31.5982 18.9537C31.599 18.8575 31.5906 18.761 31.5745 18.6664C31.5181 18.3143 31.3537 17.9756 31.0824 17.7044C30.8097 17.4316 30.469 17.2664 30.1135 17.2107C29.5733 17.1238 28.9996 17.2886 28.5819 17.7063L27.3444 18.9438C27.7614 18.5268 27.9273 17.9523 27.84 17.4122C27.7843 17.0581 27.6198 16.7183 27.3463 16.4447C26.657 15.7554 25.5378 15.7562 24.8473 16.4467L17.6806 23.6133L17.6604 23.5851C17.2973 23.2219 16.8693 22.9637 16.4126 22.8096C15.8721 22.6272 15.2923 22.594 14.7361 22.7062C15.1843 23.3833 15.8103 23.9448 16.574 24.3236C16.7857 24.4285 17.0028 24.5166 17.224 24.588V33.4743C17.224 35.2573 18.6732 36.7077 20.4547 36.7077C20.6687 36.7077 20.88 36.6871 21.0856 36.6462C21.3157 37.1162 21.6582 37.5297 22.0904 37.8421C22.3586 38.0375 22.6512 38.187 22.959 38.2908L31.9854 29.264C32.677 28.5732 32.6777 27.4551 31.9877 26.7654Z" fill="#FFAE85"/>
<path d="M34.2639 29.4586V23.222C34.1124 23.328 33.9678 23.4489 33.8324 23.5844L33.8126 23.6126L26.6459 16.4459C25.9554 15.7555 24.8358 15.7547 24.1469 16.444C23.8734 16.7175 23.709 17.057 23.6529 17.4114C23.5659 17.9516 23.7319 18.5261 24.1488 18.943L22.9113 17.7055C22.4936 17.2878 21.9199 17.123 21.3797 17.21C21.0242 17.2657 20.6835 17.4309 20.4108 17.7036C20.1396 17.9749 19.9751 18.3136 19.9183 18.6657C19.9027 18.7603 19.8943 18.8568 19.895 18.9529C19.895 19.4046 20.0682 19.8582 20.4138 20.2034L21.4945 21.2841C21.0944 20.9728 20.5931 20.8569 20.1174 20.9362C19.768 20.9942 19.4331 21.1578 19.163 21.4279C18.8902 21.7007 18.7258 22.0402 18.6694 22.3953C18.6541 22.4892 18.6465 22.5838 18.6465 22.6776C18.6465 23.1293 18.8197 23.5817 19.1649 23.9269L22.0046 26.7666C21.5869 26.3489 21.0131 26.1837 20.473 26.2707C20.119 26.3268 19.7783 26.4915 19.5056 26.7643C18.8159 27.4544 18.8166 28.5725 19.5078 29.2637L26.8954 36.6512C27.0938 36.689 27.2967 36.7081 27.5023 36.7081C28.1867 36.7081 28.8413 36.496 29.3921 36.0966C29.5329 35.9951 29.6656 35.8818 29.7869 35.7605C30.3969 35.1509 30.7326 34.3391 30.7326 33.4747V32.6786C30.8322 32.6878 30.9325 32.6923 31.0336 32.6923C32.8147 32.692 34.2639 31.2416 34.2639 29.4586Z" fill="#FFAE85"/>
<path d="M32.8003 13.8634V29.4586C32.8003 30.4363 32.0103 31.2271 31.0345 31.2271C31.0082 31.2271 30.98 31.2271 30.9514 31.2252C30.5989 31.2088 30.272 31.0886 30.0034 30.8933C30.0023 30.8933 30.0023 30.8922 30.0011 30.8922C29.5578 30.5717 29.2687 30.0495 29.2687 29.4586V33.4743C29.2687 33.9626 29.0715 34.4051 28.7522 34.7244C28.6858 34.7908 28.6137 34.8522 28.5363 34.9079C28.2452 35.1189 27.8889 35.2428 27.5033 35.2428C27.1214 35.2428 26.7689 35.1219 26.4805 34.9159C26.088 34.6355 25.8156 34.1991 25.7531 33.696V35.2245C25.7531 35.7128 25.5547 36.1561 25.2354 36.4754C25.1683 36.5437 25.0939 36.6062 25.0157 36.6619C24.7265 36.871 24.3714 36.9942 23.9872 36.9942C23.6016 36.9942 23.2441 36.8698 22.9531 36.6581C22.5098 36.3377 22.2207 35.8154 22.2207 35.2245V33.4743C22.2207 34.0641 21.9315 34.5879 21.4882 34.9079C21.1983 35.1189 20.8416 35.2428 20.4552 35.2428C19.4806 35.2428 18.6894 34.4509 18.6894 33.4743V23.3391L18.6551 23.3452C18.1416 23.3452 17.656 23.225 17.2245 23.011C16.1591 22.4827 15.4255 21.3821 15.4255 20.1107V15.3851C15.4255 14.4768 15.786 13.6066 16.4265 12.9639L17.9032 11.4845C18.33 11.0565 18.6417 10.535 18.8164 9.96666C18.9259 9.61533 18.9812 9.24492 18.9812 8.8768V7.82318H31.0345V9.16977C31.0345 9.47151 31.0666 9.79004 31.1509 10.0811C31.2912 10.6407 31.5648 11.1629 31.9504 11.6035C32.4936 12.2238 32.8003 13.0371 32.8003 13.8634Z" fill="#FEDFC5"/>
<path d="M32.8001 13.8634V29.4586C32.8001 30.4363 32.0101 31.2271 31.0343 31.2271C31.0079 31.2271 30.9797 31.2271 30.9511 31.2252C30.5986 31.2088 30.2717 31.0886 30.0031 30.8933L30.0333 15.8653C30.0333 15.7745 30.0127 15.6311 29.9745 15.4484C29.3009 12.1662 26.5302 9.96666 23.1794 9.96666H18.8162C18.9256 9.61533 18.981 9.24492 18.981 8.8768V7.82318H31.0343V9.16977C31.0343 9.47151 31.0663 9.79004 31.1506 10.0811C31.291 10.6407 31.5645 11.1629 31.9502 11.6035C32.4934 12.2238 32.8001 13.0371 32.8001 13.8634Z" fill="#FECBAA"/>
<path d="M31.8174 7.82361H18.136C17.6855 7.82361 17.3201 7.45816 17.3201 7.00726V2.13513C17.3201 1.68423 17.6855 1.31879 18.136 1.31879H31.8174C32.268 1.31879 32.6334 1.68423 32.6334 2.13513V7.00726C32.6334 7.45816 32.268 7.82361 31.8174 7.82361Z" fill="#83D9FF"/>
<path d="M21.2909 44.3253L21.144 45.0428L21.2855 44.3245C20.8888 44.2463 20.5035 44.5046 20.4253 44.9013C20.3471 45.2984 20.6054 45.6833 21.0025 45.7615C21.0036 45.7619 21.0147 45.7638 21.0158 45.7642C21.0624 45.7729 21.1085 45.7775 21.1543 45.7775C21.4988 45.7775 21.8059 45.5334 21.8726 45.1824C21.9489 44.7849 21.6884 44.4012 21.2909 44.3253Z" fill="black"/>
<path d="M26.8909 44.5606L26.9637 45.2892L26.8886 44.561C26.4861 44.6022 26.1936 44.9619 26.2351 45.3643C26.2737 45.7412 26.5918 46.022 26.9626 46.022C26.9878 46.022 27.0133 46.0205 27.0385 46.0182L27.0587 46.0159C27.4593 45.969 27.7435 45.6077 27.6988 45.2072C27.6538 44.807 27.2914 44.5186 26.8909 44.5606Z" fill="black"/>
<path d="M24.0869 44.6529C24.0869 44.6529 24.0766 44.6526 24.0763 44.6526C23.6727 44.6342 23.3354 44.9478 23.3171 45.3518C23.2992 45.7558 23.6166 46.0979 24.0206 46.1163C24.032 46.117 24.0431 46.117 24.0545 46.117C24.4436 46.117 24.7679 45.8107 24.7854 45.4178C24.8037 45.0138 24.4913 44.6712 24.0869 44.6529Z" fill="black"/>
<path d="M18.5857 43.5809L18.5765 43.5775C18.1958 43.4409 17.7808 43.6401 17.6442 44.0208C17.5073 44.4015 17.7095 44.8226 18.0902 44.9596C18.1722 44.9889 18.2557 45.0027 18.3377 45.0027C18.638 45.0027 18.9199 44.8169 19.0271 44.5178C19.164 44.1371 18.9664 43.7175 18.5857 43.5809Z" fill="black"/>
<path d="M29.6549 44.0479L29.8353 44.7578L29.6526 44.0487C29.2608 44.1494 29.0251 44.5488 29.1258 44.9405C29.2109 45.2709 29.5084 45.4906 29.8346 45.4906C29.8952 45.4906 29.9566 45.483 30.0181 45.467C30.0211 45.4662 30.0341 45.4628 30.0375 45.462C30.4262 45.3559 30.6536 44.9566 30.5498 44.5671C30.4461 44.178 30.0451 43.9464 29.6549 44.0479Z" fill="black"/>
<path d="M32.3028 43.1243L32.5931 43.7965L32.3005 43.1251C31.9298 43.2868 31.76 43.7183 31.9214 44.0891C32.0415 44.3649 32.3108 44.5293 32.5935 44.5293C32.6908 44.5293 32.7903 44.5094 32.8853 44.4682C32.8884 44.4667 32.9002 44.4618 32.9033 44.4602C33.2706 44.2943 33.4327 43.864 33.2687 43.4959C33.1047 43.1274 32.6721 42.9622 32.3028 43.1243Z" fill="black"/>
<path d="M15.7876 9.73663C15.9051 9.73663 16.0245 9.7084 16.1348 9.64966C16.4918 9.4593 16.6265 9.01565 16.4361 8.6586C16.2458 8.30192 15.8025 8.1665 15.4455 8.35723L15.4367 8.36181C15.08 8.55217 14.9492 8.99353 15.1395 9.35058C15.2707 9.59701 15.5256 9.73663 15.7876 9.73663Z" fill="black"/>
<path d="M7.31565 17.9172C7.42437 17.9741 7.54072 18.0012 7.65554 18.0012C7.91914 18.0012 8.17396 17.8585 8.30481 17.6086L8.31778 17.5831C8.49631 17.2199 8.34677 16.7808 7.98361 16.6027C7.62312 16.4249 7.18748 16.5714 7.00666 16.9296C6.81974 17.2874 6.95783 17.7296 7.31565 17.9172Z" fill="black"/>
<path d="M6.28483 20.6726C6.36265 20.6989 6.44161 20.7115 6.51982 20.7115C6.82499 20.7115 7.10995 20.5189 7.21333 20.2137L7.22286 20.1847C7.34188 19.7983 7.12483 19.3882 6.73802 19.2695C6.35464 19.1513 5.94761 19.3641 5.82516 19.7456C5.6966 20.1282 5.90222 20.5433 6.28483 20.6726Z" fill="black"/>
<path d="M8.76078 15.3549C8.89086 15.4495 9.04154 15.4953 9.19108 15.4953C9.41729 15.4953 9.64083 15.3904 9.78388 15.1936L9.79342 15.1806C10.0284 14.8518 9.95173 14.3955 9.62366 14.1605C9.29522 13.9252 8.83746 14.0007 8.60171 14.3288L9.19184 14.7629L8.59942 14.3318C8.36138 14.6591 8.43386 15.1173 8.76078 15.3549Z" fill="black"/>
<path d="M13.3015 11.3186C13.4552 11.3186 13.6101 11.2702 13.7425 11.1695C14.069 10.9307 14.1396 10.4725 13.9008 10.146C13.6616 9.81944 13.2035 9.74887 12.8773 9.98767L12.859 10.001C12.537 10.2455 12.473 10.706 12.7175 11.0283C12.8617 11.2183 13.0803 11.3186 13.3015 11.3186Z" fill="black"/>
<path d="M5.63099 31.7802C5.72788 32.0949 6.01704 32.2967 6.32984 32.2967C6.40118 32.2967 6.47404 32.286 6.54575 32.2639C6.93027 32.146 7.14733 31.7386 7.03212 31.3533C6.92188 30.9688 6.52325 30.743 6.13529 30.8486C5.74505 30.9551 5.51502 31.3579 5.62145 31.7481C5.62374 31.7558 5.6287 31.7726 5.63099 31.7802Z" fill="black"/>
<path d="M11.089 13.2488C11.2793 13.2488 11.4697 13.1752 11.6135 13.0287C11.8992 12.7426 11.8992 12.2787 11.6135 11.993C11.3274 11.7069 10.8635 11.7069 10.5774 11.993L10.5652 12.0052C10.2822 12.294 10.2879 12.7571 10.5766 13.0402C10.7189 13.1798 10.904 13.2488 11.089 13.2488Z" fill="black"/>
<path d="M6.4404 28.5869C6.38891 28.1891 6.02537 27.9068 5.62711 27.9541C5.22581 28.0022 4.93894 28.3665 4.98663 28.7681L4.99082 28.7975C5.04423 29.1614 5.35665 29.4224 5.71409 29.4224C5.74918 29.4224 5.78504 29.4197 5.82128 29.4144C6.21992 29.3564 6.49648 28.9856 6.4404 28.5869Z" fill="black"/>
<path d="M5.52013 26.4893C5.52776 26.4893 5.53501 26.4897 5.54225 26.4897C5.93669 26.4897 6.26247 26.1757 6.27391 25.7786L6.27468 25.7473C6.27468 25.3426 5.94661 25.0149 5.54225 25.0149C5.14057 25.0149 4.81479 25.3376 4.80983 25.7378C4.79915 26.1414 5.11692 26.4774 5.52013 26.4893Z" fill="black"/>
<path d="M5.68087 23.552C5.72474 23.5596 5.76785 23.5634 5.81095 23.5634C6.15885 23.5634 6.46746 23.3143 6.53117 22.9599C6.53308 22.9492 6.5346 22.9386 6.53613 22.9279C6.59526 22.5277 6.31869 22.1554 5.91815 22.0967C5.52256 22.0379 5.15215 22.3099 5.08845 22.7043C5.01902 23.1018 5.28376 23.4806 5.68087 23.552Z" fill="black"/>
<path d="M40.2306 15.5861C40.3725 15.7921 40.6007 15.9024 40.8334 15.9024C40.9764 15.9024 41.1214 15.8604 41.248 15.773C41.581 15.5442 41.6654 15.0879 41.4365 14.7545L40.8276 15.1619L41.4342 14.7511C41.2068 14.4161 40.7513 14.3288 40.4168 14.5558C40.0819 14.7827 39.9945 15.2382 40.2215 15.5731L40.2306 15.5861Z" fill="black"/>
<path d="M43.9708 22.9565C43.5688 23.0015 43.2796 23.3643 43.325 23.7663L43.3288 23.798C43.3811 24.1631 43.6947 24.4267 44.0532 24.4267C44.0876 24.4267 44.1227 24.4244 44.1578 24.4194C44.5549 24.3626 44.8318 23.9967 44.7803 23.6C44.7342 23.1991 44.3702 22.9115 43.9708 22.9565Z" fill="black"/>
<path d="M42.7348 20.8896L42.7378 20.8992C42.8317 21.2185 43.1235 21.4252 43.4401 21.4252C43.5084 21.4252 43.5778 21.4157 43.6469 21.3951C44.0352 21.281 44.2572 20.874 44.1431 20.4857L44.1401 20.4761C44.026 20.0878 43.619 19.8658 43.2307 19.9802C42.8427 20.0943 42.6207 20.5013 42.7348 20.8896Z" fill="black"/>
<path d="M41.7002 18.1511C41.828 18.4109 42.0893 18.5623 42.3609 18.5623C42.4688 18.5623 42.5787 18.5383 42.6821 18.4872C43.0448 18.3087 43.1955 17.8723 43.0166 17.5091L42.3529 17.8185L43.0158 17.5076C42.8442 17.1414 42.4082 16.9838 42.042 17.1555C41.6758 17.3272 41.5178 17.7632 41.6895 18.1294L41.7002 18.1511Z" fill="black"/>
<path d="M38.3856 13.2988C38.529 13.4453 38.7186 13.5185 38.9086 13.5185C39.0936 13.5185 39.2786 13.4491 39.4213 13.3091C39.7081 13.0284 39.7146 12.5694 39.4381 12.2803C39.1638 11.9846 38.7014 11.9667 38.4047 12.2406C38.1075 12.5149 38.0892 12.9784 38.3635 13.2755L38.3856 13.2988Z" fill="black"/>
<path d="M44.209 26.0147C43.8066 26.0044 43.4697 26.3199 43.4556 26.7223C43.4373 27.1233 43.7451 27.4647 44.1465 27.4872C44.1606 27.488 44.1739 27.4883 44.188 27.4883C44.5737 27.4883 44.8968 27.1866 44.9185 26.7963L44.9197 26.7662C44.9311 26.3622 44.613 26.0265 44.209 26.0147Z" fill="black"/>
<path d="M33.7018 9.70238L33.7193 9.71192C33.8284 9.7699 33.9455 9.79737 34.0607 9.79737C34.3213 9.79737 34.5734 9.65699 34.7058 9.41094C34.8965 9.05579 34.7622 8.61176 34.4082 8.4195L34.0539 9.06037L34.4059 8.41798C34.0512 8.22343 33.606 8.35351 33.4115 8.70827C33.2173 9.06266 33.347 9.50821 33.7018 9.70238Z" fill="black"/>
<path d="M36.1794 11.3087L36.1908 11.3174C36.3232 11.4178 36.4784 11.4662 36.6329 11.4662C36.8542 11.4662 37.0728 11.3663 37.217 11.1763C37.4615 10.8539 37.3982 10.3947 37.0762 10.1501L37.0712 10.1467C36.7504 9.90027 36.2907 9.96054 36.0443 10.2814C35.7979 10.6022 35.8585 11.0622 36.1794 11.3087Z" fill="black"/>
<path d="M50.296 37.1029L46.8578 33.6586C46.5652 33.3657 46.1765 33.2043 45.7626 33.2043C45.3491 33.2043 44.96 33.3657 44.6678 33.6586L44.5881 33.7384L44.3622 33.5125C44.0834 33.2329 43.8675 32.9075 43.721 32.5531C43.708 32.5062 43.6909 32.4604 43.6687 32.4173C43.5566 32.1022 43.4982 31.7669 43.4982 31.4225V30.4482C43.565 30.4833 43.6378 30.5089 43.716 30.5222C43.758 30.5294 43.7996 30.5329 43.8408 30.5329C44.1883 30.5329 44.4958 30.2849 44.5602 29.9324C44.6384 29.5365 44.3817 29.1516 43.9854 29.0722C43.811 29.0375 43.6386 29.0677 43.4936 29.1462C43.4486 28.1056 43.0233 27.1336 42.2832 26.392L38.9477 23.0507C38.1992 22.3011 37.204 21.8884 36.1454 21.8884C35.326 21.8884 34.5455 22.1367 33.8871 22.5964L33.5331 22.2405V13.8634C33.5331 12.8537 33.1665 11.8794 32.5012 11.1207C32.0278 10.5813 31.7673 9.8885 31.7673 9.16982V8.55603H31.8176C32.6713 8.55603 33.366 7.86137 33.366 7.00726V2.13513C33.366 1.28102 32.6713 0.586365 31.8176 0.586365H18.1362C17.2825 0.586365 16.5878 1.28102 16.5878 2.13513V7.00726C16.5878 7.86137 17.2825 8.55603 18.1362 8.55603H18.2491V8.87723C18.2491 9.66687 17.942 10.4092 17.3847 10.9673L15.908 12.4466C15.1245 13.2317 14.6931 14.275 14.6931 15.3851V20.1104C14.6931 20.7524 14.8472 21.3585 15.1184 21.8956C14.1472 21.9517 13.2419 22.3565 12.5484 23.0507L9.21286 26.392C8.42932 27.1771 7.99788 28.2208 7.99788 29.3305V31.4225C7.99788 32.2121 7.69118 32.9545 7.13385 33.5125L6.91069 33.7361C6.90955 33.7368 6.90878 33.7376 6.90802 33.7384L6.82867 33.6586C6.53609 33.3657 6.14737 33.2043 5.73347 33.2043C5.31996 33.2043 4.93086 33.3657 4.63866 33.6586L1.20009 37.1029C0.597366 37.7068 0.597366 38.6895 1.20009 39.2933L2.37769 40.4725C2.66341 40.7589 3.12727 40.7593 3.41338 40.4736C3.69948 40.1875 3.70024 39.724 3.41414 39.4375L2.23692 38.258C2.20374 38.2248 2.20374 38.1711 2.23692 38.1379L5.67549 34.6936C5.70753 34.6615 5.7598 34.6611 5.79184 34.6936L6.3896 35.2925H6.38998L14.5523 43.4689L15.4667 44.3852C15.4999 44.4184 15.4999 44.4722 15.4667 44.5054L12.0285 47.9496C11.9961 47.9821 11.9438 47.9821 11.9118 47.9496L5.48781 41.5146C5.20209 41.2281 4.73822 41.2278 4.45212 41.5135C4.16563 41.7996 4.16525 42.2631 4.45097 42.5496L10.8753 48.9846C11.1675 49.2775 11.5566 49.4389 11.9705 49.4389C12.384 49.4389 12.7727 49.2775 13.0653 48.9846L16.5035 45.5403C17.1062 44.9368 17.1062 43.9541 16.5035 43.3503L16.4661 43.3129L16.8999 42.8784C17.4064 42.3707 18.0794 42.0655 18.7946 42.0193C19.8013 41.9541 20.7485 41.5246 21.4615 40.8101L24.62 37.6446C25.531 37.4054 26.2401 36.6635 26.4328 35.7342C26.7574 35.8887 27.1202 35.9757 27.5032 35.9757C28.8807 35.9757 30.0014 34.8538 30.0014 33.4744V31.7353C30.3165 31.8791 30.6663 31.96 31.0348 31.96C32.4123 31.96 33.5327 30.8381 33.5327 29.4587V24.3172L35.7857 26.5812C35.9287 26.7251 36.1168 26.7968 36.3048 26.7968C36.4918 26.7968 36.6787 26.7258 36.8217 26.5835C37.1082 26.2982 37.1094 25.8347 36.824 25.5478L34.9457 23.6603C35.3092 23.4601 35.7189 23.3532 36.1454 23.3532C36.8122 23.3532 37.4393 23.6134 37.9108 24.086L41.2464 27.427C41.7538 27.9355 42.0334 28.6114 42.0334 29.3305V31.4225C42.0334 32.6031 42.4923 33.7128 43.3254 34.5475L43.5528 34.7752L42.4904 35.8395L36.0649 42.276L35.7067 41.9171C35.7029 41.9137 35.6994 41.9098 35.6956 41.9064L35.6327 41.8431C34.8743 41.0836 33.8669 40.627 32.7965 40.5575C32.1453 40.5152 31.5327 40.2375 31.0692 39.7736L28.6625 37.3799C28.3756 37.0945 27.9117 37.0957 27.6264 37.3826C27.3414 37.6694 27.3426 38.1333 27.6295 38.4182L30.0346 40.8101C30.7476 41.5246 31.6948 41.9541 32.7019 42.0193C33.4167 42.0655 34.0896 42.3707 34.5962 42.878L34.6317 42.9135C34.6508 42.9352 34.671 42.9554 34.6924 42.9745L35.03 43.3125L34.9926 43.3503C34.3899 43.9541 34.3899 44.9364 34.9926 45.5403L38.4308 48.9846C38.7234 49.2775 39.1121 49.4389 39.526 49.4389C39.9395 49.4389 40.3286 49.2775 40.6212 48.9846L50.296 39.293C50.8987 38.6891 50.8987 37.7068 50.296 37.1029ZM43.9892 29.8199L43.9754 29.8176L43.8419 29.7905L43.9892 29.8199ZM20.4246 39.7751C19.9634 40.2375 19.3508 40.5152 18.7 40.5575C17.6292 40.627 16.6218 41.0836 15.8634 41.8431L15.4312 42.276L15.0421 41.8862C15.0371 41.8812 15.0322 41.8759 15.0272 41.8713L7.94333 34.7752L8.17068 34.5475C9.00381 33.7128 9.46272 32.6031 9.46272 31.4225V29.3305C9.46272 28.6114 9.74196 27.9355 10.2497 27.427L13.5853 24.086C14.0568 23.6134 14.6839 23.3532 15.3507 23.3532C15.7783 23.3532 16.1896 23.4608 16.5542 23.6626L14.6728 25.5471C14.3871 25.8332 14.3875 26.297 14.6736 26.5828C14.8167 26.7254 15.004 26.7968 15.1913 26.7968C15.3789 26.7968 15.5666 26.7251 15.7097 26.582L17.9569 24.3306V33.4744C17.9569 34.8538 19.0777 35.9757 20.4552 35.9757C20.8435 35.9757 21.2112 35.8864 21.5393 35.7277C21.6881 36.4537 22.1519 37.0656 22.7806 37.4142L20.4246 39.7751ZM32.0682 29.459C32.0682 30.0305 31.6044 30.4955 31.0348 30.4955C30.4649 30.4955 30.0014 30.0305 30.0014 29.459V21.2891C30.0014 20.8848 29.6738 20.5567 29.269 20.5567C28.8643 20.5567 28.5366 20.8848 28.5366 21.2891V33.4748C28.5366 34.0462 28.0731 34.5108 27.5032 34.5108C26.9916 34.5108 26.5671 34.1362 26.485 33.6461V21.2807C26.485 20.876 26.1574 20.5483 25.7526 20.5483C25.6225 20.5483 25.5001 20.5826 25.394 20.6421C25.1625 20.7654 25.0049 21.0087 25.0049 21.2891V33.4744C25.0049 33.5675 25.0103 33.6586 25.0202 33.7491V35.225C25.0202 35.7964 24.5567 36.2614 23.9868 36.2614C23.4173 36.2614 22.9538 35.7964 22.9538 35.225V21.2719C22.9538 20.8676 22.6257 20.5395 22.2214 20.5395C21.8166 20.5395 21.4886 20.8676 21.4886 21.2719V33.4744C21.4886 34.0458 21.0251 34.5108 20.4555 34.5108C19.8856 34.5108 19.4221 34.0458 19.4221 33.4744V19.8502C19.4221 19.4455 19.0941 19.1174 18.6897 19.1174C18.285 19.1174 17.9573 19.4455 17.9573 19.8502V22.3702C17.8959 22.39 17.8364 22.4179 17.7811 22.4545C16.8339 22.0986 16.1579 21.1823 16.1579 20.1104V15.3851C16.1579 14.666 16.4375 13.9901 16.9449 13.4816L18.4215 12.0022C19.2551 11.1676 19.714 10.0579 19.714 8.87723V8.55603H21.1864C21.5912 8.55603 21.9189 8.22797 21.9189 7.82361C21.9189 7.41887 21.5912 7.09119 21.1864 7.09119H18.1362C18.09 7.09119 18.0527 7.05342 18.0527 7.00726V2.13513C18.0527 2.08897 18.09 2.05121 18.1362 2.05121H31.8172C31.8638 2.05121 31.9012 2.08897 31.9012 2.13513V7.00726C31.9012 7.0538 31.8638 7.09119 31.8172 7.09119H24.625C24.2206 7.09119 23.8926 7.41887 23.8926 7.82361C23.8926 8.22797 24.2206 8.55603 24.625 8.55603H30.3024V9.16982C30.3024 10.244 30.6919 11.2797 31.3995 12.0869C31.8306 12.5782 32.0682 13.2092 32.0682 13.8634V29.459ZM49.2592 38.258L39.5843 47.9496C39.5683 47.966 39.5489 47.9741 39.526 47.9741C39.5035 47.9741 39.484 47.966 39.4676 47.9496L36.0294 44.5054C35.9962 44.4722 35.9962 44.4184 36.0294 44.3852L36.5829 43.8305L36.5833 43.8302L42.1997 38.2042L45.7043 34.6936C45.7363 34.6611 45.7886 34.6611 45.8206 34.6936L49.2592 38.1379C49.2924 38.1711 49.2924 38.2248 49.2592 38.258Z" fill="black"/>
<path d="M20.455 3.78992C20.0251 3.78992 19.6753 4.14049 19.6753 4.57117C19.6753 5.00223 20.0251 5.35242 20.455 5.35242C20.8853 5.35242 21.2351 5.00223 21.2351 4.57117C21.2351 4.14049 20.8853 3.78992 20.455 3.78992Z" fill="black"/>
<path d="M46.002 37.1769C45.5717 37.1769 45.2219 37.5275 45.2219 37.9581C45.2219 38.3888 45.5717 38.7394 46.002 38.7394C46.4319 38.7394 46.7818 38.3888 46.7818 37.9581C46.7818 37.5275 46.4319 37.1769 46.002 37.1769Z" fill="black"/>
<path d="M12.9536 44.6491C12.9536 44.2184 12.6038 43.8679 12.1739 43.8679C11.7436 43.8679 11.3938 44.2184 11.3938 44.6491C11.3938 45.0798 11.7436 45.4304 12.1739 45.4304C12.6038 45.4304 12.9536 45.0798 12.9536 44.6491Z" fill="black"/>
</g>
<defs>
<clipPath id="clip0_600_168">
<rect width="50" height="50" fill="white" transform="translate(0.748047 0.000366211)"/>
</clipPath>
</defs>
</svg>
