<svg width="51" height="50" viewBox="0 0 51 50" fill="none" xmlns="http://www.w3.org/2000/svg">
<g clip-path="url(#clip0_600_89)">
<path d="M25.0817 36.9132L26.5934 41.566H31.4858L27.5278 44.4417L29.0396 49.0947L25.0817 46.219L21.1237 49.0947L22.6355 44.4417L18.6775 41.566H23.5699L25.0817 36.9132Z" fill="#FBA761"/>
<path d="M42.9437 36.9132L44.4555 41.566H49.3479L45.3898 44.4417L46.9017 49.0947L42.9437 46.219L38.9857 49.0947L40.4975 44.4417L36.5396 41.566H41.4318L42.9437 36.9132Z" fill="#FBA761"/>
<path d="M7.21978 36.9132L5.70796 41.566H0.815674L4.77358 44.4417L3.26177 49.0947L7.21978 46.219L11.1778 49.0947L9.66597 44.4417L13.6239 41.566H8.73159L7.21978 36.9132Z" fill="#FBA761"/>
<path d="M44.6513 15.8754C44.6513 14.444 43.491 13.2837 42.0597 13.2837H28.9957C28.9957 13.2837 30.1048 11.9283 30.5612 8.73327C31.344 3.25387 29.3789 1.14928 27.4301 0.911588C26.9451 0.852408 26.5187 1.23356 26.5187 1.72213C26.5187 1.72213 26.0267 6.84342 25.0817 8.73327C22.7334 13.4299 16.6616 15.7783 16.6616 15.7783V32.4717C16.6616 32.4717 18.0367 34.0168 20.8082 34.0168C27.4301 34.0168 39.9862 34.0168 39.9862 34.0168C41.4176 34.0168 42.5778 32.8565 42.5778 31.4252C42.5778 29.9938 41.4176 28.8335 39.9862 28.8335H41.0229C42.4543 28.8335 43.6145 27.6732 43.6145 26.2418C43.6145 24.8104 42.4543 23.6502 41.0229 23.6502H42.0597C43.491 23.6502 44.6513 22.4899 44.6513 21.0585C44.6513 19.6271 43.491 18.4668 42.0597 18.4668C43.4909 18.467 44.6513 17.3066 44.6513 15.8754Z" fill="#FCE780"/>
<path d="M44.6513 15.8754C44.6513 14.444 43.491 13.2837 42.0597 13.2837H28.9957C28.9957 13.2837 30.1048 11.9283 30.5612 8.73327C31.344 3.25387 29.3789 1.14928 27.4301 0.911588C26.9451 0.852408 26.5187 1.23356 26.5187 1.72213C26.5187 1.72213 26.0267 6.84342 25.0817 8.73327C22.7334 13.4299 16.6616 15.7783 16.6616 15.7783V32.4717C16.6616 32.4717 18.0367 34.0168 20.8082 34.0168C27.4301 34.0168 39.9862 34.0168 39.9862 34.0168C41.4176 34.0168 42.5778 32.8565 42.5778 31.4252C42.5778 29.9938 41.4176 28.8335 39.9862 28.8335H41.0229C42.4543 28.8335 43.6145 27.6732 43.6145 26.2418C43.6145 24.8104 42.4543 23.6502 41.0229 23.6502H42.0597C43.491 23.6502 44.6513 22.4899 44.6513 21.0585C44.6513 19.6271 43.491 18.4668 42.0597 18.4668C43.4909 18.467 44.6513 17.3066 44.6513 15.8754Z" fill="#FEE2CA"/>
<path d="M39.9865 32.4512C39.9865 32.4512 27.4303 32.4512 20.8084 32.4512C18.0371 32.4512 16.6619 30.9061 16.6619 30.9061V32.4717C16.6619 32.4717 18.037 34.0167 20.8084 34.0167C27.4303 34.0167 39.9865 34.0167 39.9865 34.0167C41.4178 34.0167 42.5781 32.8564 42.5781 31.4251C42.5781 31.1522 42.5356 30.8892 42.4575 30.6423C42.1256 31.6909 41.1449 32.4512 39.9865 32.4512Z" fill="#FDD0AB"/>
<path d="M42.0599 16.3936H38.979V18.4669H42.0599C43.4912 18.4669 44.6516 17.3066 44.6516 15.8753C44.6516 15.5064 44.5733 15.1563 44.4345 14.8386C44.0344 15.7537 43.1223 16.3936 42.0599 16.3936Z" fill="#FDD0AB"/>
<path d="M42.0599 21.5769H38.979V23.6502H42.0599C43.4912 23.6502 44.6516 22.4899 44.6516 21.0586C44.6516 20.6897 44.5733 20.3396 44.4345 20.0219C44.0344 20.9369 43.1223 21.5769 42.0599 21.5769Z" fill="#FDD0AB"/>
<path d="M41.0232 26.7603H38.3918V28.8335H41.0232C42.4545 28.8335 43.6148 27.6732 43.6148 26.2418C43.6148 25.8729 43.5366 25.5229 43.3977 25.2051C42.9977 26.1202 42.0857 26.7603 41.0232 26.7603Z" fill="#FDD0AB"/>
<path d="M15.0326 33.888H9.06655C7.96821 33.888 7.07788 32.9975 7.07788 31.8993V16.9842C7.07788 15.8858 7.96831 14.9955 9.06655 14.9955H15.0326C16.1309 14.9955 17.0212 15.8859 17.0212 16.9842V31.8992C17.0212 32.9976 16.1309 33.888 15.0326 33.888Z" fill="#7FDECF"/>
<path d="M10.209 31.4972C9.77671 31.4972 9.42622 31.1467 9.42622 30.7144V14.9955H9.06655C7.96821 14.9955 7.07788 15.886 7.07788 16.9842V31.8993C7.07788 32.9976 7.96821 33.8879 9.06655 33.8879H15.0326C16.1309 33.8879 17.0212 32.9976 17.0212 31.8993V31.4973H10.209V31.4972Z" fill="#24BFB2"/>
<path d="M12.0499 30.9046C12.8736 30.9046 13.5414 30.2369 13.5414 29.4131C13.5414 28.5894 12.8736 27.9216 12.0499 27.9216C11.2261 27.9216 10.5583 28.5894 10.5583 29.4131C10.5583 30.2369 11.2261 30.9046 12.0499 30.9046Z" fill="#F2EDEC"/>
<path d="M12.0496 27.1881C10.8225 27.1881 9.82422 28.1864 9.82422 29.4134C9.82422 30.6406 10.8226 31.6387 12.0496 31.6387C13.2767 31.6387 14.2749 30.6405 14.2749 29.4134C14.2749 28.1864 13.2766 27.1881 12.0496 27.1881ZM12.0496 30.1712C11.6318 30.1712 11.2919 29.8313 11.2919 29.4136C11.2919 28.9959 11.6318 28.656 12.0496 28.656C12.4674 28.656 12.8072 28.9959 12.8072 29.4136C12.8072 29.8313 12.4673 30.1712 12.0496 30.1712Z" fill="black"/>
<path d="M31.4861 40.8324H27.1269L25.7798 36.6866C25.6828 36.3876 25.3961 36.1794 25.0819 36.1794C24.7676 36.1794 24.4811 36.3875 24.3839 36.6866L23.0369 40.8324H18.6778C18.3599 40.8324 18.0781 41.0371 17.9798 41.3395C17.8816 41.6418 17.9892 41.9732 18.2464 42.1599L21.773 44.7222L20.4259 48.868C20.3319 49.1572 20.4307 49.4829 20.6696 49.671C20.9247 49.8721 21.2923 49.8794 21.5552 49.6884L25.0818 47.1261L28.6083 49.6884C28.8841 49.8888 29.2718 49.8696 29.5267 49.6435C29.7428 49.4518 29.8269 49.1428 29.7375 48.8681L28.3905 44.7223L31.917 42.16C32.1743 41.9732 32.2819 41.6419 32.1836 41.3396C32.0858 41.037 31.804 40.8324 31.4861 40.8324ZM27.0967 43.8481C26.8395 44.0349 26.7319 44.3662 26.8301 44.6685L27.644 47.1734L25.5131 45.6253C25.2588 45.4405 24.9047 45.4405 24.6505 45.6253L22.5197 47.1734L23.3335 44.6685C23.4318 44.3662 23.3242 44.0348 23.0669 43.8481L20.9362 42.3H23.57C23.8878 42.3 24.1697 42.0954 24.2679 41.7929L25.0818 39.288L25.8956 41.7929C25.9939 42.0954 26.2757 42.3 26.5936 42.3H29.2274L27.0967 43.8481Z" fill="black"/>
<path d="M50.046 41.3394C49.9478 41.0369 49.6659 40.8323 49.348 40.8323H44.989L43.6419 36.6865C43.5448 36.3875 43.2582 36.1793 42.9439 36.1793C42.6297 36.1793 42.3432 36.3874 42.246 36.6865L40.8989 40.8323H36.5398C36.222 40.8323 35.9401 41.0369 35.8419 41.3394C35.7436 41.6417 35.8513 41.9731 36.1085 42.1598L39.635 44.7221L38.288 48.8679C38.1939 49.1571 38.2928 49.4828 38.5316 49.6709C38.7868 49.872 39.1544 49.8793 39.4173 49.6883L42.9438 47.126L46.4704 49.6883C46.7462 49.8887 47.1339 49.8695 47.3889 49.6434C47.605 49.4517 47.6891 49.1427 47.5997 48.868L46.2526 44.7222L49.7792 42.1599C50.0367 41.9731 50.1443 41.6417 50.046 41.3394ZM44.9588 43.8481C44.7016 44.0349 44.5939 44.3661 44.6922 44.6685L45.5059 47.1734L43.3753 45.6253C43.118 45.4384 42.7697 45.4383 42.5126 45.6253L40.3817 47.1734L41.1956 44.6685C41.2938 44.3661 41.1862 44.0348 40.929 43.8481L38.7982 42.3H41.4321C41.75 42.3 42.0318 42.0953 42.1301 41.7929L42.9439 39.288L43.7578 41.7929C43.856 42.0953 44.1379 42.3 44.4558 42.3H47.0895L44.9588 43.8481Z" fill="black"/>
<path d="M13.6244 40.8324H9.26531L7.91824 36.6866C7.82 36.3841 7.53816 36.1794 7.22029 36.1794C6.90242 36.1794 6.62059 36.3841 6.52234 36.6866L5.17527 40.8324H0.816192C0.498321 40.8324 0.216485 41.0371 0.118243 41.3395C0.0200005 41.6418 0.127618 41.9732 0.384844 42.1599L3.91141 44.7222L2.56434 48.868C2.46609 49.1703 2.57371 49.5017 2.83094 49.6884C3.08807 49.8753 3.43641 49.8753 3.69363 49.6884L7.2202 47.1261L10.7468 49.6884C11.0226 49.8888 11.4102 49.8696 11.6651 49.6435C11.8812 49.4518 11.9653 49.1428 11.876 48.8681L10.5289 44.7223L14.0555 42.16C14.3127 41.9732 14.4203 41.6419 14.3221 41.3396C14.2241 41.037 13.9423 40.8324 13.6244 40.8324ZM9.23514 43.8481C8.97791 44.0349 8.87029 44.3661 8.96854 44.6685L9.7824 47.1734L7.65164 45.6253C7.39734 45.4405 7.04324 45.4405 6.78895 45.6253L4.65828 47.1733L5.47205 44.6684C5.57029 44.3661 5.46268 44.0347 5.20545 43.848L3.07469 42.2999H5.70848C6.02635 42.2999 6.30818 42.0953 6.40643 41.7928L7.22029 39.2879L8.03416 41.7928C8.1324 42.0953 8.41424 42.2999 8.73211 42.2999H11.3659L9.23514 43.8481Z" fill="black"/>
<path d="M20.8084 34.7505H39.9864C41.8201 34.7505 43.3118 33.2587 43.3118 31.4252C43.3118 30.5846 42.9983 29.8159 42.4821 29.2297C43.5864 28.6882 44.3483 27.5522 44.3483 26.2418C44.3483 25.4012 44.0349 24.6326 43.5186 24.0463C44.6229 23.5049 45.3849 22.3689 45.3849 21.0585C45.3849 20.0121 44.8989 19.0768 44.141 18.4669C44.899 17.8569 45.3849 16.9216 45.3849 15.8752C45.3849 14.0416 43.8931 12.5498 42.0595 12.5498H30.2554C30.6223 11.7498 31.0458 10.5311 31.2879 8.83706C31.8502 4.90064 31.0005 2.81119 30.1887 1.75152C29.5016 0.854643 28.5784 0.31226 27.5192 0.183158C26.6255 0.0733927 25.8094 0.783256 25.7855 1.68111C25.6481 3.09263 25.1455 6.96499 24.4256 8.40503C22.5761 12.1041 18.1665 14.3094 16.8046 14.9196C16.3279 14.51 15.7091 14.2617 15.0329 14.2617H9.0667C7.56553 14.2617 6.34424 15.4829 6.34424 16.9841V31.8993C6.34424 33.4005 7.56553 34.6217 9.0667 34.6217H15.0327C15.8359 34.6217 16.5588 34.2718 17.0575 33.7168C17.8321 34.2058 19.0821 34.7505 20.8084 34.7505ZM25.7383 9.06148C26.7329 7.07232 27.2288 2.00689 27.2494 1.79224C27.2516 1.769 27.2527 1.74546 27.2527 1.72212C27.2527 1.69703 27.2623 1.67583 27.2811 1.65923C27.3075 1.63609 27.3329 1.63902 27.3414 1.64009C27.8008 1.69615 28.4655 1.91587 29.0236 2.64419C29.6644 3.48052 30.3252 5.19781 29.835 8.62964C29.4194 11.5385 28.4342 12.8111 28.428 12.819C28.0434 13.2891 28.3897 14.0176 28.9959 14.0176H42.0599C43.0842 14.0176 43.9176 14.8511 43.9176 15.8754C43.9176 16.8998 43.0842 17.7332 42.0599 17.7332H38.9763C38.571 17.7332 38.2424 18.0617 38.2424 18.467C38.2424 18.8724 38.571 19.2009 38.9763 19.2009H42.0599C43.0842 19.2009 43.9176 20.0344 43.9176 21.0586C43.9176 22.0829 43.0842 22.9164 42.0599 22.9164H38.9763C38.571 22.9164 38.2424 23.2449 38.2424 23.6502C38.2424 24.0556 38.571 24.3841 38.9763 24.3841H41.0231C42.0475 24.3841 42.8809 25.2176 42.8809 26.2419C42.8809 27.2661 42.0475 28.0996 41.0231 28.0996H38.4137C38.0084 28.0996 37.6798 28.4281 37.6798 28.8335C37.6798 29.2388 38.0084 29.5673 38.4137 29.5673H39.9864C41.0107 29.5673 41.8441 30.4008 41.8441 31.4252C41.8441 32.4495 41.0107 33.2829 39.9864 33.2829H20.8085C19.2938 33.2829 18.267 32.7754 17.7095 32.3945C17.7392 32.2337 17.7555 32.0684 17.7555 31.8993V16.9841C17.7555 16.6972 17.7105 16.4208 17.6279 16.161C19.3475 15.3718 23.7497 13.0384 25.7383 9.06148ZM15.0327 33.1541H9.0667C8.3748 33.1541 7.81191 32.5912 7.81191 31.8993V16.9841C7.81191 16.2922 8.3748 15.7294 9.0667 15.7294H15.0327C15.3831 15.7294 15.7 15.8741 15.9278 16.1065V32.4717C15.9278 32.5595 15.9437 32.6456 15.9738 32.7265C15.7437 32.9879 15.4076 33.1541 15.0327 33.1541Z" fill="black"/>
</g>
<defs>
<clipPath id="clip0_600_89">
<rect width="50" height="50" fill="white" transform="translate(0.0820312 0.000366211)"/>
</clipPath>
</defs>
</svg>
