<svg width="42" height="50" viewBox="0 0 42 50" fill="none" xmlns="http://www.w3.org/2000/svg">
<path d="M31.7726 14.0734V8.32331C31.7726 4.21252 28.4402 0.880127 24.3294 0.880127H18.1702C14.0594 0.880127 10.7271 4.21252 10.7271 8.32331V14.0734H31.7726Z" fill="#D5985C"/>
<path d="M25.7134 29.6113H16.7863L7.61745 32.1019C4.21458 33.0262 1.85254 36.1155 1.85254 39.6418V45.4741C1.85254 47.4882 3.48532 49.121 5.49943 49.121H37.0003C39.0144 49.121 40.6472 47.4882 40.6472 45.4741V39.6418C40.6472 36.1155 38.2851 33.0262 34.8823 32.1018L25.7134 29.6113Z" fill="#95D6A4"/>
<path d="M34.8822 32.1018L25.7134 29.6111H18.2947L27.4635 32.1018C30.8665 33.0262 33.2284 36.1154 33.2284 39.6418V45.4741C33.2284 47.4882 31.5956 49.121 29.5815 49.121H37.0002C39.0143 49.121 40.6471 47.4882 40.6471 45.4741V39.6418C40.6471 36.1155 38.2852 33.0262 34.8822 32.1018Z" fill="#78C2A4"/>
<path d="M25.7133 29.6113V24.9103H16.7861V29.6113C16.7861 32.0764 21.2498 33.0571 21.2498 33.0571C21.2498 33.0571 25.7133 32.0764 25.7133 29.6113Z" fill="#FFDDCE"/>
<path d="M25.4487 0.96405V14.0735H31.7728V8.32339C31.7728 4.59289 29.0284 1.50393 25.4487 0.96405Z" fill="#C38959"/>
<path d="M21.2498 33.0569L23.4954 34.9991C24.193 35.6024 25.2285 35.5992 25.9222 34.9916L30.5619 30.9282L29.1781 28.8589C28.6996 28.1435 27.7137 27.9864 27.0365 28.5176L21.2498 33.0569Z" fill="#B3E59F"/>
<path d="M21.2501 33.0569L19.0045 34.9992C18.3069 35.6025 17.2714 35.5993 16.5776 34.9917L11.938 30.9282L13.3218 28.859C13.8002 28.1436 14.7862 27.9864 15.4634 28.5176L21.2501 33.0569Z" fill="#B3E59F"/>
<path d="M14.361 13.4695H11.0027C10.2461 13.4695 9.63281 14.0828 9.63281 14.8394V16.4139C9.63281 17.1704 10.2461 17.7837 11.0027 17.7837H14.361V13.4695Z" fill="#FFDDCE"/>
<path d="M31.4977 13.4695H28.1394V17.7837H31.4977C32.2543 17.7837 32.8676 17.1704 32.8676 16.4139V14.8394C32.8676 14.0828 32.2542 13.4695 31.4977 13.4695Z" fill="#FFCBBE"/>
<path d="M28.1778 11.6656V9.81058C28.1778 8.83483 27.3869 8.04388 26.4111 8.04388C26.1618 8.04388 25.9153 8.09665 25.6878 8.19879C22.8648 9.46571 19.6349 9.46571 16.8119 8.19879C16.5844 8.09665 16.3379 8.04388 16.0886 8.04388C15.1129 8.04388 14.3219 8.83483 14.3219 9.81058V11.6656C14.3219 12.6618 13.5143 13.4694 12.5181 13.4694V17.6495C12.5181 22.472 16.4274 26.3813 21.2499 26.3813C26.0723 26.3813 29.9817 22.472 29.9817 17.6495V13.4694C28.9854 13.4694 28.1778 12.6617 28.1778 11.6656Z" fill="#FFDDCE"/>
<path d="M28.1778 11.6656V9.81058C28.1778 8.83483 27.3869 8.04388 26.4111 8.04388C26.1618 8.04388 25.9153 8.09665 25.6878 8.19879C25.6084 8.23444 25.5287 8.26868 25.4487 8.30233V17.6496C25.4487 21.6879 22.7068 25.0842 18.9834 26.0826C19.7064 26.2765 20.4657 26.3814 21.2499 26.3814C26.0723 26.3814 29.9817 22.4721 29.9817 17.6496V13.4695C28.9854 13.4694 28.1778 12.6617 28.1778 11.6656Z" fill="#FFCBBE"/>
<path d="M35.1129 31.2531L31.1102 30.1658L29.9093 28.3699C29.1877 27.291 27.7009 26.9764 26.593 27.7558V25.6344C28.9 24.0856 30.5019 21.5648 30.8075 18.663H31.4975C32.7378 18.663 33.7469 17.654 33.7469 16.4136V14.8391C33.7469 14.0213 33.3068 13.3061 32.6524 12.9125V8.32315C32.6524 3.73392 28.9188 0.000366211 24.3296 0.000366211H18.1704C13.5813 0.000366211 9.84777 3.73392 9.84777 8.32315V12.9125C9.19332 13.3063 8.75323 14.0213 8.75323 14.8391V16.4136C8.75323 17.6539 9.76228 18.663 11.0026 18.663H11.6927C11.9983 21.5648 13.6001 24.0856 15.9071 25.6344V27.7558C14.8007 26.9768 13.3131 27.2898 12.5908 28.3699L11.3897 30.1658L7.38711 31.2531C3.61064 32.2788 0.973145 35.7283 0.973145 39.6417V40.5055C0.973145 40.9914 1.36692 41.385 1.85262 41.385C2.33833 41.385 2.7321 40.9914 2.7321 40.5055V39.6417C2.7321 36.5202 4.83592 33.7687 7.84807 32.9504L11.7131 31.9005L15.9979 35.6531C17.0161 36.5448 18.5561 36.5497 19.5796 35.6643L21.2499 34.2197L22.9202 35.6643C23.9459 36.5515 25.4859 36.5431 26.5018 35.6532L30.7867 31.9005L34.6517 32.9504C37.664 33.7687 39.7677 36.5201 39.7677 39.6417V45.4739C39.7677 46.9999 38.5262 48.2414 37.0001 48.2414H35.0765V44.0224C35.0765 43.5366 34.6828 43.1429 34.1971 43.1429C33.7114 43.1429 33.3176 43.5366 33.3176 44.0224V48.2414H9.18206V44.0224C9.18206 43.5366 8.78829 43.1429 8.30259 43.1429C7.81688 43.1429 7.42311 43.5366 7.42311 44.0224V48.2414H5.49963C3.97357 48.2414 2.7321 46.9999 2.7321 45.4739V44.617C2.7321 44.1312 2.33833 43.7376 1.85262 43.7376C1.36692 43.7376 0.973145 44.1312 0.973145 44.617V45.4739C0.973145 47.9697 3.00368 50.0004 5.49963 50.0004H37.0004C39.4963 50.0004 41.5269 47.9698 41.5269 45.4739V39.6417C41.5268 35.7283 38.8893 32.2789 35.1129 31.2531V31.2531ZM31.9879 14.8392V16.4137C31.9879 16.6842 31.768 16.9041 31.4975 16.9041H30.8613V14.349H31.4975C31.768 14.349 31.9879 14.569 31.9879 14.8392ZM11.6387 16.9041H11.0025C10.7321 16.9041 10.5121 16.6842 10.5121 16.4137V14.8392C10.5121 14.5688 10.7321 14.3488 11.0025 14.3488H11.6387V16.9041ZM12.5182 12.59H11.6066V8.32326C11.6066 4.70404 14.5511 1.75944 18.1703 1.75944H24.3295C27.9487 1.75944 30.8933 4.70392 30.8933 8.32326V12.59H29.9818C29.4721 12.59 29.0574 12.1754 29.0574 11.6656V9.81063C29.0574 8.35164 27.8704 7.16458 26.4112 7.16458C26.0351 7.16458 25.6705 7.24268 25.3278 7.39653C22.7363 8.55967 19.7636 8.55955 17.1723 7.39665C16.8294 7.2428 16.4648 7.16458 16.0886 7.16458C14.6295 7.16458 13.4425 8.35164 13.4425 9.81063V11.6656C13.4425 12.1754 13.0278 12.59 12.5182 12.59V12.59ZM13.3977 17.6496V14.2009C14.4467 13.8361 15.2016 12.8373 15.2016 11.6656V9.81063C15.2016 9.32141 15.5995 8.92353 16.0888 8.92353C16.2149 8.92353 16.3371 8.94968 16.4521 9.00128C19.5011 10.3695 22.9989 10.3696 26.0483 9.00116C26.1631 8.94968 26.2852 8.92353 26.4114 8.92353C26.9006 8.92353 27.2986 9.32153 27.2986 9.81063V11.6656C27.2986 12.8373 28.0534 13.8361 29.1024 14.2009V17.6496C29.1024 21.968 25.5875 25.5019 21.2501 25.5019C16.9141 25.5019 13.3977 21.9696 13.3977 17.6496V17.6496ZM18.429 34.3338C18.0654 34.6485 17.5184 34.6468 17.1568 34.3299L13.098 30.7754L14.0526 29.3479C14.2476 29.056 14.6472 28.9955 14.9202 29.2095L19.8671 33.09L18.429 34.3338ZM21.25 31.9391L17.666 29.1277V26.565C18.7743 27.0123 19.9834 27.2609 21.2501 27.2609C22.5168 27.2609 23.7258 27.0123 24.8342 26.565V29.1277L21.25 31.9391ZM25.343 34.33C24.9814 34.6467 24.4346 34.6485 24.0709 34.3338L22.6327 33.09L27.5797 29.2094C27.8522 28.9959 28.2518 29.0553 28.4473 29.3478L29.4019 30.7754L25.343 34.33Z" fill="black"/>
</svg>
